<mxfile host="app.diagrams.net" modified="2021-03-04T11:26:19.225Z" agent="5.0 (Windows NT 10.0; Win64; x64) AppleWebKit/537.36 (KHTML, like Gecko) Chrome/88.0.4324.182 Safari/537.36 Edg/88.0.705.81" etag="DpTS5oUGN4Osz0DknClb" version="14.4.4" type="github">
  <diagram id="C5RBs43oDa-KdzZeNtuy" name="Page-1">
    <mxGraphModel dx="1422" dy="833" grid="1" gridSize="10" guides="1" tooltips="1" connect="1" arrows="1" fold="1" page="1" pageScale="1" pageWidth="827" pageHeight="1169" math="0" shadow="0">
      <root>
        <mxCell id="WIyWlLk6GJQsqaUBKTNV-0" />
        <mxCell id="WIyWlLk6GJQsqaUBKTNV-1" parent="WIyWlLk6GJQsqaUBKTNV-0" />
        <mxCell id="ET8FEvUB2pL6zUA1rJ1b-11" style="edgeStyle=orthogonalEdgeStyle;rounded=0;orthogonalLoop=1;jettySize=auto;html=1;exitX=1;exitY=0.25;exitDx=0;exitDy=0;entryX=0;entryY=0.874;entryDx=0;entryDy=0;entryPerimeter=0;" edge="1" parent="WIyWlLk6GJQsqaUBKTNV-1" source="ET8FEvUB2pL6zUA1rJ1b-3" target="ET8FEvUB2pL6zUA1rJ1b-6">
          <mxGeometry relative="1" as="geometry" />
        </mxCell>
        <mxCell id="ET8FEvUB2pL6zUA1rJ1b-3" value="" style="shape=image;verticalLabelPosition=bottom;labelBackgroundColor=#ffffff;verticalAlign=top;aspect=fixed;imageAspect=0;image=data:image/png,iVBORw0KGgoAAAANSUhEUgAAAK0AAACQCAYAAAB6S+swAAASrklEQVR4Ae1d3a4cRxHOS8B99gV4AJ4AHgApdxOJCyQuEkUgEeEEMeALIhACidwgkQgJKZBVnEiERAL/SHFiYuG1CSgWTkzsOInjg48THCSwsGhUf91V83PO9MycnZ3dsjTe2d7urqqvvq7p2bNV80Dwf47AjBB4Yvnn8MCM9HVVHYGApL1+41bwwzGYCwe+/+Jb4YH/3r8f/HAM5sKBJ56/5NsDv+LOCwHf087LX65tCLSndSQcgTkh4JF2Tt5yXREBJ60TYXYIOGln5zJXuBNp//mf/4U/fngv64Ax/s8ROAoEOpH2sd9/Eh559XZ46vU75jh2ej988w/7pg36HDt1O3zpub2R9V2FsliG7Fn3lqFYLEK5Glkdn24yBDqR9isv3A6n3vk03L171xzPXtgPT566bdqkz4M/uzmqUatyERZ9SDuqFj7ZJiAwmLTfOZ1PWiTgYhEWcEQirkIJ7zkk7i2LsFgUYbkXAp1z/0UZMGiuShqP81A/AFTGFQX0L8LyskfaTSDamDp0Ju0PXtsPT79pj0de/UcoXtqrtf/iwp3QGmmRbEw8c+luJy0YbCItjyuA0fIZk1kIHrcDRsaY0PlcUyHQmbTfPXM7PHV23xzHz+yF7526Zdqgz0/O7beTFi1lgnK0JYJ1Jy0Rk4kP8yliSqRlPpvPpgLZ5Y6LQGfSNu1p37vxUXj73etZe1oTCRXZQnDSjuva7Z2tO2mv3An7dz4xxzvXPgh/vXLNtEGfO5982hppaT9r96UUaffCEvahvMelfmmvmrc9SON0FN5eN+6WZZ1Je/rS1XDu0t/McXZ1Obx24W3TBn3Ov3WllbRCIroJK/DrKNmbShSGG6iyTDdi4JL0mSU8zsM3bKmfk3abaXxs2eGniW1fef39/Y/C5Xffz9oebDOYbtt6EOgcaZv2tEjaq07a9bjKpQgCnUj71Zf3A3y9Vf324OnXb4afv/FhrR36ffHZWyLDXx2BURHoRNobd++HH5//LOs498G9URX1yRwBQaATaaWzvzoCm4CAk3YTvOA6ZCHgpM2CyztvAgJO2k3wguuQhYCTNgsu77wJCCBp51JZxPX0KjjAAawwc/XaR8EPx2AuHDj+0l+8LNJcygG5nlS66kmvmrgJuzTXIQcBvxHLQcv7bgQCTtqNcIMrkYNAp58m5kzofR2Bo0agV6T9xvlXw5df/aU5Hjr16/DeZ58etb4+vyOQXzXx9M1roXjtRHjh5rvmgLbvXTzjkDoCR45AdqQF0n774ulwPdwzB7SVTtojd5gL6FGfFkj78NkXw4mPr5oD2o6etJT8GGsaZHoQ88z6Ds6UNX73rrZDv5ReTwmiVOikzfSUf6fKR0GmdNuA8Y3LmjE70j5z5WL43DPHG4+HTv4mS3h+566Oa54ZHbihjmjWOL8VCCgmmkUKJIzVfNS8mMavkkVVHz2XGjH5aTZpx9getK1+veIlQxcQiv2LMpSFigamNJK0U/2EmuNUX/MZFwyJ8qAfy5ESTeIlIkFJ5ZtUCaegq+YEvbBAlyIsl1LCCbKEub7DYhGiTKn50FTiqSR5xfIyptiL7hETU1xPF+kDPVRWshhReUWbIlFZ31jlT89XGTjh2/WTVju4usqlThc7ER1U6y/kDGG1SqUQiVDwvoW0Qv7k9bBoldfsbFpUHJVQd+6ndayRNtUnI6LR+EQWTXJUMtZ+MPL0vFpeFUOxD/tLKn779iDhBiy02AWeI1brmZCoWnQv0n79zInwytuXzPG1k8tOe1oLUlKl2g4OhkiEjjaOSKTF0ehALk5HLMdIKEP0vHou3Q7ziDwbNZN+cIZjmqKSJpEmV4UERiaMwblS5KUaDlw4TwrvRXmJ3GYepSK0V6N3fG90TIPsXFXSEi6CZRo17Vkv0j5+4WR4596/zPGtP51cM2nJiVKRJoFvgU/tvM1gD+h2cMG0pD0gsvcmbSI5UkxfGRTnEIcoA7CzugAuW0HaQV956RWvgdTtOkLpduwvIGqnMIERXTqnCKPbLWltRFVE1/KUc+G01cHaDqOjmlfGCwNADpLF6qj1svKoHw7XOmrZ0C7zN8mL2yFlGI5vvhHbqu3BY2/8Lrx587o5Hj37206RNjq/egMkIDe042Ud2is3YuhUuXmBmx2OGLodyyuxI6Vd/Crv4bJ82GU06t0YlZh4NR27kBZmpn6NJZ6iPEXaVqxgHiYg8lLppSIo2B3tNXPZKIslrKJ8nHAj/uu1PXjs3Cvh/K0b5nj09Zc7k3YjLN9SJYCQsijbTVyFZYe7q25ztUs5qk96kXbQ9uCoLPF5GYFqtG0AZrXECusNn6Qm2DZsYJQFBZ20yU1+NhMEjuU+0PnOvX+HLzz/0/D5Z4+b48Ff/TBc3B/34SAzwdDVXDMC2ZF2zfq5OEeghoCTtgaJN2w6Ak7aTfeQ61dDwElbg8QbNh0BJK1XbvHKLXPiAFaY8SIQVATCcZgHDl6sY9Ovha5fDQHf09Yg8YZNR8BJu+kecv1qCDhpa5B4w6Yj4KTddA+5fjUEepHWK8zUcPSGNSKQTVqvMLNG77ioRgR6kXbbf0+LGQ2H/5K6EdD2RpvF0N5vvE9i3tt4Uw6eaQxss6smTlthZjBmnSbA9J7Zk5ZSbXRaTSfjZ9ApO9IOrjCDCX1UdANzouKv420kSiuSc6OWy1Bw/li5UrlPilwxl0znfHGmbUrPlhyqFnmYNGjrBKAuLDuSQNuhdCCfK/1ibhbLK3XhDmYIJ0OKjiKDMJBiHZhTHjGAvtKPEhA5jZ7lJZ0l74vkkwxp42TNWBAkVumAD0Kh8s1wPvGVwgjmI/PZT2hfEX70uNJPzUU2SX0KXZch6XTYuskm7eAKM2iwKKiJo88FTDCOCcCAkTN4PM6lil9E8sBcSUaq6cHAYo2PNnk5Wbsiw8JcczDqTvIkW1ZH873VKkS64GJY4nuyVRZZCAf204TCc7KViK3txlVcSQJNMpIldgzoK/A2F0mh/mIfZhXzgERU7VfCQxaexiPp0Hw2EWkFJA1MG4mojxiHYIiD1ArWUbYascB0/Tlh2SbPklYDLvOgLmrBVKEFWVHf+GG7POyioy3bZ8gv8zT0a5ancSPZgouOto0yWBZ8RnbAePEZf4j26yIpWh70SWNAPyF8wvMQPMTehtdepB1SYUbn9UsUPZhEFTBUJNKXsGbHYX40XlIJfJrrYHnrJy3oHks0KfuqhGrr12y7xg0I0uGqUCUILBBYQKCTsK7pyoefaXk0EehVrhJ5oXUy0g6pMNNOWm00nRNQut1e2jRpEYwYDdQqVtGY+suq1/NqeZa0Vl81L0aaSvRhpxuyxX5qrHEeyZPIjMRsibSanK39orx2+7RNRtcqabmWV6GL/pmyTxo3LS8CEcqiUISfkLSDvvKKoOK6M5UAiXgQdXiD3rSCYXzD9gBmQ0dWb5gkMmAhjWVYqkt3szwGNt5gpPdwWRVyacfXfF3R5bDITnPRpbbEG05aDDVCIXb1flXbJSgSHhJhadHorQF6YFkkPJsNSVcB/lzjhhUh0R8NpDUEp8E4FhVsX8RNaui2XtuDoRVmtAJ+vsUI6KvciGb2I61XmBnRBVs6FV8V4pVpRDN7kXbQ9mBE5X2q3UTASbubfp+11dmk9Qozs/b3ViifTdqtsNqNmDUCTtpZu283lXfS7qbfZ2119k8Tj9zaVclf4PNfW/iPBenPiEoD/B5QvjyHPy6kc9XLT7cMgQ2LtOm5VekvJ4A4/fXEfucnpNZETeO3zE9ujkJgEtLGP7c2PENB/gSpdMRTGKNJC6QulsvaD0GgvW2O6pz+fp4IrJ+0+rcHeHnXP2DRUVMDCpFWfQbj8O/dlXYYAvM7azV4W3e+dtJilI2koks8vQUCNv1qSvcB/OG9ELiBtJHQW+crN4gR2HDStpBSbs7iq5CYfz8rvwJzN28lAmsnrflJ34Hbg7bIq/3QQGrfHmiAtvJ8/aTVvzVtuBGTm614sxajqb0RI2/USQvj4u5jK13mRk1C2gg7Rlp1aYevtgZd2oeOj5r5yQYjsH7S8u8sJclOIqtgRF9lxdxUae706lG2E0yz77R+0s4eMjdgagSctFN7wOVnI+CkzYbMB0yNgJN2ag+4/GwEnLTZkPmAqRHIfqDz1Aq7fEcAI+2cHnzmuvqD+vzhd/fn8cA3fzBf8pM//M6vtrNDwG/EZucyV9hJ6xyYHQJO2tm5zBV20joHZodAL9L6w+9m5+etUjibtP7wu63y/yyN6UXa8Up9VpMWmzG0NRCa+4zXWs+GGG/uNFMnm/BH8k3JnmmeXTzrRdqHz74YTnx81RzQVl48k4lhN9LaDN5MEbnda9kUuRN069+JtDrdvtu0O9Erm7SDH353QI6YfvYAZDZgrpfKdKDcLyK6ZD7E5y9AP845w89U2o7NN0uRy7Tj5GpuHo/kkjy1mHxG0bgsi/g8guZ+FQ5FW/QzJTiDWGTE5zqADHq+gtRx6CSjInIb32aTdpyH3zFxTDZuCM0PVeMHgAhh9lZhFbNx1KUcCSH5ZuRwGrIKjQ+/M5deNY+OtLgQ6EF0TY+PiqlCrf00ZbROvDjYpraH2pnM5U4ytLztPV87ae2lvmF7gOSzEcaOAWeoiCiVZ3CcRNH6vDqqElfUHLIgcGp4vCaR30Q2E/U0Ae3Tb+IVQM8J8xr99KOJmFy8gM1VQo1p14XH79BLdtVEiLRDHn5nCajJxSTSl2V2vBnDpKaPVIRUDhZSYx8mA0VFLU+8TAQEsqT+irSsg/Sm1wbSNvZTo4x+lrS0oHjBQT/Z2qgxSNrDZChx23zaK9KO9vA7JhT5QhOKCcxOqpHWOJW3BMrBddI2bEdAtsyjn3eFOuk5+Zz7EPktaSmKNvXT1NFj6vbJVgNtFb20TXh+mAwtb3vPe5F26FdeFFkW8cZJAki6BBYhPVQtXX6pX4qMi3KZHp6nHaxJqLcSRdvD7xaqaB3Pz8RJOtX7iN5Aj+Z+FeKgjrD1qdyIxfZF0A+/kydM+o2YxbEXaf3hdxZEf7deBPqR1h9+t14vuTSDQC/SDt0eGA38jSOQiYCTNhMw7z49Atmk9YffTe+0Xdcgm7S7DpjbPz0CTtrpfeAaZCLgpM0EzLtPj4CTdnofuAaZCCBpvWqLV22ZEwe8woxXmAlzq17jFWYyL03efXoEsn+aOL3KrsGuI+A3YrvOgBna76SdodN2XeVepPViHbtOm2ntzyatF+uY1mEuPYRepPWfJjp1pkSgF2mHFeuAdBbJdVqD6SYNZw3yuK6D5HytR+JhUnT+3WF9Wz6H3DmdXyQpRpW2mEoliaKIx7j+zibt4GIdOnGwBZ9Rm9dOWiLIZpF2KKJgk6Tn01yRnIq0JmPYJI6O+8zibNIOK9bBWahQQ8BknHKdg7g6OTKUJSYBLqE4h0r+i+neVV/gguC5zPxlKMtKO4xtnDNDdoO8lODI0UX3WYjjG2SILaCT6M5RWxIbI1GwBoPMRVcuqXbzXKme1o6yoR/LW7HNLZV4Eh71xEu9CMFG4CrqE0kLMtojqowRM4e8rpm0UgIoGddcVYZAFmchv1KZGMp8jWCJ+TRGwAVA8ZyJSd0p01aGDpPdIq+Wap5sTZGobp9YEeBJ7HH7BP1kfEulHOyviAr2soFVediMeKQ5ofRSHRurH2ApmCU9m0lLi4cChBmj9NJz9DnvRdohxTooLVpAY5WZWFhdBS21hIiG1frFTyCEKGerdhwjUYnmrYFpqsd0ld0iT5PWRFm5mqTIJwtMaYunkSQwXkVd+BCjG+tLdtiFSDiQvXGeaqStRnyJwLFdFxMBPCr+YoVRlwgm6RFtMrhzsKrYUrW76/tepB1UrAMdKSAQQeRyWI0MEQAGvd5Pm9lCIgOeJu1Q2S3yaqSVBaN1JdnJPv0ZX8LLFV5RYh9eAPRe21ElLRG7XEG7yFb92/Aw7X1Iq2SAOcbPG0DaQV95GWO0oXROlzY6jw7TkUIIHFe4ONyOiVHAOKMuj6bpI7tFniZt5dKNixKjjR0rFqRXWhCFjnCIG5OQCdwcaYkgZVHEbYKpuNOKhya/xkMWQdJOziLG3JCCDi+8uGjSQpSxQ157RdphxToIHBM18XKnq8rUnYqA1PpVTee5sR87uNVJuipMX9kN8uIlnK8mTDDc+kQn1u2rWpIILp8wkcA2UylHk832TeuaxuL7A/A46EZM9skiAV6rpJXFQbbK1ZRGQN+kj54l/7wfab1YRz7S6xyho3IvudVFBe9lq9FnwnG/8sp+oPOwr7z6GOxjshDASKq+Teg8WF811FeSMh7m7Rkqx4yyoE6vSDtoTysg+Ksj0BOBbNJ6sY6eSPuw0RDIJu1okn0iR6AnAk7ansD5sOkQANL+HxCgaX4ZCz4PAAAAAElFTkSuQmCC;imageBorder=#000000;" vertex="1" parent="WIyWlLk6GJQsqaUBKTNV-1">
          <mxGeometry y="270" width="173" height="144" as="geometry" />
        </mxCell>
        <mxCell id="ET8FEvUB2pL6zUA1rJ1b-5" value="" style="shape=image;verticalLabelPosition=bottom;labelBackgroundColor=#ffffff;verticalAlign=top;aspect=fixed;imageAspect=0;image=data:image/png,iVBORw0KGgoAAAANSUhEUgAAAKkAAADFCAYAAAAv49IOAAAaK0lEQVR4Ae1db8skx3G/L5G89z4fIB8gnyD5AAG/mwO/COSFjUggISbBY/TCJmASiN8EIhEIONFgJRDbgvjuBJIsW+RGIgSJnHS+f7JOz/qeO+UUSA5d1KGqurqre7p3p5/Z3emdrYO5nenpP1W/+nV17z5TNVeM/lMEKkfgSuXyqXiKgFGSKgmqR0BJWr2JVEAlqXKgegSUpNWbSAXcStL/+t8vzc9/9azogDb6TxHYFQJbSfrCvz4xX3/tkfnuW4+D45s3Lswf/fQiKIM637z+yPzOD9a7ki/dT9+aprNj9K1ZrRrDl+kGWnrMCGwl6e/98JG5/uFn5unTp8Hx8s0L82fXHwVlXOcrf/1wj5j0pl2tPEn3OJJ2XQcCk0j65zfKSbruGrNarehoOuN8LnpEW+4849p0zcqsmsY00KZ5ybwE19y+7Y1RT1oHk/YoxSiSfueNC/P9X4TH11/7tWn+eT0o/9ubj03Wk1oiAreMkR6RzqncEhMv7PmqNdgEgZDtoBtd7vfIjyq6HkXSb73+yHz3zYvgePH1tfn29fOgDOr85dsXWZKSF5WECzHo28hLGvakwuMG5FaShggu82oUSVN70jsPPjHvf3SvaE+aJem6o+Vcek95LrcFStJlMnGDVuNIeuuxuXj8JDg+vPux+Y9bd4MyqPP4yWdZT0pL88oMlvXENmClJN1gttO6NYqkN967bd5+7z+D483+A/PGzfeDMqjzzr/fypPUGJP+4sR7T1juG9PglyVY4lPLvagLRNY96eIZO4qkqeX+l/c/MR98dL9ouV88mqrgXhCYRtLbStK9WEU7DRDYStKv/ejCwM9N8bf777/10PzNz341KId6v/3yeTCIXigCUxDYStIHT5+b773zedHx9sfPpsikbRWBAIGtJA1q64UiMAMCStIZQNchyxBQkpbhpbVnQEBJOgPoOmQZAkrSMry09gwIXLn34NzooRjUzIErt+9+YvRQDGrmwJUvnj83eigGNXNA96Qz7LF0yDIElKRleGntGRBQks4Aug5ZhoCStAwvrT0DAsUk/cN3XjO/+9rfBcdXr/+DufP5ZzOIr0OeAgJFJL3x8K5p3njV/PDhR8EBZd9+9/VTwEt1nAGBYpL+6bs3zD3zLDigrFWSzmC+0xiymKRX3/wn8+qnt4MDysaRFGLmOSWOOMdoUQp1xhgoitSbYAEZxz+hm4KmEI7tUv8UtNtfVYoFmwQl2CXuAG3FNuSQcg5FD8t3hUcRSV+69a75jZdeTB5fvfaP2/GOFeQWGEx3zCQlQuzKKAzLvJ+gU5wjgYMgmYzC0bggS9+mb7neNE2KSAp70ssv96wgpMuBSFBWkLweps5pe4omxdkbesO8hxX9Bl56ZdoWsptQBKpLaIYThWe+937Uf+vzTGXqGY5gFf36CFg2itDJyURykkxczxoPx/LGxf5sroEgYYbL5ELYtS2kLGrND6QXd33Z8SD1CziBpjUtpyiSeQxsODlE6WJ/7DllUjgnZmOarhOrYUQ+N7ZrgJ54ao7FA5IUp5ppnNEIaCRP0pOOI6k0KBmDJ8DKUOw+2Mifr/s+zD9lDUZEE0TZVI+NjMb3odfkSQU5wFZRHZYpNG/YBuQlrvSmd/mFZB3CxnluGMOSC/XAc1Ef8eWJIXGV51Sf+/EyCMKh3tCG+4q0gDxfTHK8BXVb009kaTFJ/+D1V81P3n8vOH7/WjduT4ozjRUUyiKIRBAPsgTQxusHABBAAKYzlsNsS1uUw3pTSVImH/eTqJcejwxMctDYLqma87iyDg/gP0Fv395PFqgBY3J/BEGoH+XVojaeXDFJuc9cucQY6rCdQIK16a7yNYzN515+PxlFGa46jenOp7G0mKR/cvOa+fDZfwfHH//btaMhKRncGsx5OWsgQdJcPSgfTgpJwIwR7TZh2NYaFSYEjC+8orGThNoIctlUQ3LOEjlh7G1kFP0I54BUdJ4wIum6M1fP/ESJt1DesUiCYo9E9kOT9PJ70tLlXhqezsOlhABBgJhcDvTQ00gQJcmQiLZt0I/1XkyobD033gZZk3ViY3qDQvYWRz4kqSWdJWzakxK2bSOXW5IJ6zsZeBweQ+IUYkykT8kZTkLAjXEa1raTZpojLXtFDnxxeuFnPza/eHgvOL7x5r+M86TWA4RfnJi8tG+UhMJzu1wGm/oIDSQR1kuBL5cxu0fkuh0kSiMSxCTF5StRD4YejsdlvAyS8UOPI4kcKcCXAZmg0BIH5Gg60zkvLsnFjQUpsUhcB/2KcqiH98BLDr84pZwCbS2snnbi8FaEPtmT277b3kzk6CVI+vZPzDvnD4LjG2/9aCRJGVD93DkC0uteqnMir/eKcC0Id4k+j/AnqEtoqU3GIWC9oSfYuGacyNh5Qt42cXPo1+09uHDk55S20RDFX5wm7UmjwfVSERiDQBFJHz/7H/Nbr/yV+c2XXwyOr/z9X5h3L/b5MocxqmidpSJQRNKlgqB61Y2AkrRu+6h0xpR9u1fEFIE5EFBPOgfqOmYRAprBRDO4VJ/BRpNDaHKM6pOD6HJftPBo5TkQUJLOgbqOWYSAkrQILq08BwJK0jlQ1zGLEFCSFsGlledAoJikmsFkDjOd9phFJNUMJqdNlrm0LybppEf14BnD+JnFQPMwNCG4Vf1F9MR7Tl54ODl6RlNGI2Az+3xo+GR/okNRzz9LOv1h5cRIsxYVk3RaBpNtuh4zSbfpBveHBHKhKI64IQYUQpN6Ql7Ui5/KT0yEMdLVWqeIpJMzmAhP6uOXOFkEQETAU9IDiruhpA7WS7lkDxzLFMJKHokSPKAXYsOjx2FDS49nDd3JJBJQRpGR3jv5MogF4kQTcrym+8B0IojOkW8lZI0SLkB7EBHrsqyhShCg5eKwgltZnajWrkI3gjFnuigi6bQMJjYwC5d7S441aB2TRiRygBBbrE91OJQByZHYNmA5h/SicS2hsga15LMEIWIRmf0YUj6pgw3w4/GkHnI8QTLoP8XFTSRFOdKNxNaJZPSTimST1zPxayfDzkRSjq6UXhT0IdI4mzgDR0YAEuRI6srFRJCkkWSKxgsI4cawRLbeVe4TPZHDyRb048wEOngv7IqR935iyvJ0wgVbw8kH1xE+UAT3HZBBr0d3UUzSSRlMAmA9uGB4mvW1kjRNrn2SNE10wS/AMuXFucopk3RSBhNHUiAj7xHJq0qSsgfwJIg8heuHLUKfvj5cC08ql34852U3nBQBMdwYNDbLRHHq8ZYAxqN66LygLesnxh673IMc25fqWD+PJ0ozqg/Crfb/iz3pzn6CQkPa1C3BEp3KhjeRpJZAuFTb7HK0Eo4hKZiQ6smlnongtx2CpEBZ2E/HX8BA58QSHOxJ7STitvRpCQj3HFZ2SbdjhN2CLGnvXzshU/IVk3RaBpOUCKdUBuQJPV6p9n0HWfy2/AMyh6zd0qDu2+Uk1Qwm0yya8abjOu1Nx79/ZRssy4uCmsUknbTcZ4HVG4pAHgElaR4bvVMJAkUk1QwmlVjtxMQoIumJYaPqVoKAkrQSQ6gYeQSUpHls9E4lCChJKzGEipFHQDOYaAYTzWDyhWYIqT5DSO020uU+v8ronUoQUJJWYggVI4+AkjSPjd6pBAElaSWGUDHyCBSTVJND5MHUO/tBoIikmhxiP0bQXjcjUExSfVRvM6B6d/cIFJN0v8khSEEfayRDMkRMz+5xGPYo45SGd/dQcmD9Rmkg8R/VYFipb83V6EFttK8Mgxm2CkqKSDo5OUQwdP7Ck1TUEQFtonR/p4cm6aH12x9youfetEBG+QZc1DMOZRdNEqdFJJ2cHCIKUAuC0pAU8duCeSbTJwal4QzMBdCRN6IMKBRLhEFuLmY+E1/EwEE9nuGWpG0bBwuGAXAgE4UTWVkxy4pMSmHbu3oIgmlYJhwv1i+qw5GnEFB49cy0cgw2KsjLsqOIHMsv+o71s0GJq/ZakH3Fx/tbnXqrM9eX/cD4SdtRMGIYagX9NaaDjDFCVlYh93lYkgZACgCCJA0WVNRO1Ak8zSaScgw/omd6ABj/ib64SJRzCDGQGs8t8ARyOF7vO6WoUCGrnHjZelfPXMiyG2+gn4/29CsLkVSO4VWhCerTEtn26970LnJP1EH9wjEGGAzCtLm+xEOex7bj+iQl6OGw3SdJpySHQLDZg/AnGBgB814uMArnVxoYkT2YDR9GokjAhPnYG0pv5m4Lw7ky9g4sU4LglsTo3QVJ2dCuq0G93rRnofGwrtQPz70H9mHNRNLBGHYwIDyJEoU+y5BuzmUVYY45p5xXZ/mE3kH9XHlsC8bPrgxMTOiLzx1Q+ZNiTzolOYQnXyRQAIBUVIAhjRh4Xlk/Iqk1NhlV9BUMX0pS6odB9jpRuSdQrt5YkgoDO3k3kxQne9ujd3dyILY8oYWuEeaU3KIxXS8JLjAL6ufKY1t4HZIOaiRRi0k66ScoVDScpQSmJJc1rvBOzjuwF7CeQZKPlkDZD+/rLFCWsNiXMzqc0HhsVNzDQqWcUeQSyB5KyMr9cL80XqRTtNyj7IlJyH2hgdnLibaBGnhBJGxkYgjQg8kg8Q/0sz1B1r9GZk/JkVGUBw4j0lPKIYWVMsnyzHkxSacmhwhmlGQMgpb74gTSEwEZcN9PY/CLEvYVkZRJZDf6He83B2DYvnELYkkdGFEaxXoLrCu/BFAdJhYMIWUMvywkxov0o5SPvOSzR9riSXlMJiXqKcZqX/FfkAL9GBCoy04ENcjUD/HY9MUJ8JBf7kkkMXF46A2f5STV5BAb4DzyW4UebqhtPFETP0ENG20tKSbppOV+qzhaYS4E2OvLxW2cLMJT2xXL/ZhgPXvTnY/rKlNLSZoBRovrQaCIpJocoh7DnZIkRSQ9JWBU13oQUJLWYwuVJIOAkjQDjBbXg4CStB5bqCQZBA5MUvodjf4WzU/pgGRQzj9YZyTV4pNF4KAkxd/i3A9x9Pua+wsN/FnQ3TtZe6jiCQQOStJ4fPeYmr2xpLe4xbrq9eURmJGk8d+J6W/dzrNeXidtuTAEZiJp9IACgwp/O9Yln9HQT4vADCQdelBnDSWpg0JPPAIHJikQNP8tHr5Y6XLvjaNnhMBBSYoPFONzmPycpIxHgi2AfJZRTaQIzEDSjaDrT1Ab4Tnlmwf1pHmg1YvmsdE7lZBUDaEI5BFQkuax0TuVIKAkrcQQKkYeASVpHhu9UwkCStJKDKFi5BFQkuax0TuVIKAvG9OXjenLxmp/kZXK97z6l6Hpcl/JkqZi5BFQkuax0TuVIKAkrcQQKkYeASVpHhu9UwkCxSTVl41VYrkTEqOIpPqysRNiRkWqFpNUUz9WZL0TEaWYpId42diJYO/UDPMRuOLBCYV8h3mTXfr0QW1+OQVFQfiMy8eXiKOIpId62VgK75Mvg3z2cWpvTCkuM8FIlETAI+bjb03P/D6yKIgiku7iZWNhnBMH5RGg9JIwypvv3vSHAA9josj7dJjT3b+mhoy0fQwe1xoV03C3pm3sOC7nPMjFb+6Qb9ag3PVt17mXhrU9hWlvksUFGcrx7NtCXCg3Ew9iwVx4d8r7UVBj1zWiniAp9sN6kmytYym8t+J44skOTNI+8/IvIgMbUS5h6743Lr01GrfDaySpewmBJNO4MYQ57ZtG2GhhX5tIGr5kwrYX5AiXcehX1uHxJPnl2EwszOltGjdx/EQEDodjCK0EVvwmFJkWHNox3qJVlafFJJ3ysjFGQHo6chbSOAngpTe1xoqNA31K0LeNwbLgpyAWG3SzXNFbQCQheGnFLaFfAThJG8j4ZTCe0Fe0HcjnvKrda9rrGAfXTspk38IiScrvfHL1Kz4pJumUl43xa1+ITMJTBO8CEkZzhrbLlgA+No4jqSX0tjECmwSkGSPXeJLKiePGDMYT+o4kqZyATH6/NbCjBGOwTrwpDYnu5Kr0pJikk36CkkawZNrssWAl9h4SjSM9qUs0ITzxyDECeyQNCjXIuJLwRIZxJMWJlJIxGE+QNJisYmzQKVruWf54snI5vffKbikYE8FRaJecQL6Das6KSTrtZWMEPM7+pjP+5V+CZPa1Ks4zoEFp2aQvKuRV0Tjw9jZONuGWw3FjBBYISEPtuTsiGowvX2o2jqQwhvR6jhTBeJKkdv/JOjligkx+DytlD0kKOPKXJestbV+sD7XN9yf7ruW8nKSVvGyMSEpfomoBc69ypH6CSgy47jrjXkyduI9F4FlD1uZqVlFeTNJJy/0OVT45kuLWozHduVizB3iuTddto+hxeVFQ8WhJOrCPFiwWgSKS6svGFsuDqhUrImnVmqhwi0VASbpY0y5HMSXpcmy5WE2UpIs17XIU0+QQmhxCk0No8oX6ky/UbiNd7pezKi5WEyXpYk27HMWUpMux5WI1UZIu1rTLUUxJuhxbLlaTYpJqBpPFcqFaxYpIqhlMqrXjogUrJmktz5OOtUr45HqqVfgkfqrGHGXb5SaphqHJ8HS+fIqfoh44FspFBwyUEvVcREAdoc/FJNUMJgPrzldgn9Z3AmAsE4W6cN4CGSPGgZCph/J9vXjS9qYF0m561toJsJ+TIpJOzmACsT1NLgmDjSGCGB2sRzFQHA8VxN5zDBAkbrhp0XMGWpm2hXFEfD5ahTyMTEDxCj7lHhvFAr1RVj+u93i2n1EJI87MwLPJ8TYmjLhpBYTxRDwTBPGBzoiD9KSSOBldgwDAKObKxpzJxBKyx0OcF5F0cgYTMIRbimh5oVlN524pwnqcOYSA5Xt978MjgCBn2EFUp11lSBpGnp61YPCM4bbIypMjJmkwOVhX7MsHEJLMYF6aOOj1gvEkUSROFABIKmciSDeRFO9JYjPFhBwcCCmWfIjR9zJzm8N9zkBSBkmSQxrCRjkKkDwRLDCWxOiNgGixYeB+0pMy8YkEkuA0WQTwglghka2s1oN72cKJgskXWAdBDlhWz8RKADrgBAzGEyQVbYV0lHVlIDRHm6Y8aW/as1Q59LqFpOvOXGVdAiEOc1FM0kkZTAJDXIak1EYSEIl2ZCQNMomwnQNsdkxSJnp2Xxk6CT/xrHDHRtJJGUwCQ2whKS+ViQQN5EAsYcWS7bYEG5Z7dj5giMt5UhqXiMYywBaEy+3uGXRl78MksUvpmYuNF+QIsBEkDfaLIt4f+uT+mejwGU/YXD3ZBhcv3gqRHowTVtPlHmAQxsJL2rs2gyx31ni4XDam62Ii2CQS2S9Ou1juSQZasqOEEQ0bOtqyCJKSepkvTo68kqRMPNJt1bxiE7gBmRLLd0BSO4mi7QUREDDnrZe3AW2h/L6f5AXcsm4Yquz1X/FyPy2DyUhdIq8yspWrhllDAlfgbi3rJP4JqlC7UYkkwIGAx56Po+Vx9y8cIoNJMUljjyE9RKHljqp6xpuO0mFMIglKEzT3fC/2pMf2F6dR9tJKVSOgJK3aPCocIFBEUs1goqSZA4Eiks4hoI6pCChJlQPVI6Akrd5EKqCSVDlQPQKawUQzmGgGk9qzY6h89WdY0eW++sVOBVSSKgeqR0BJWr2JVEAlqXKgegSUpNWbSAUsJmkug8kvP/9M0VQE9oJAEUk1g8lebKCdbkGgmKRzP0/qkxhs0Sxxe0rbQXBaov/DF0EISCKEJBZk8MpHekg8fJhZPjie61PWEQ+WT4wQiMWNr4tJOm8GEwKJA+5iZTZfT2kbxRxtHqiyuzb8w0lF8WQQyyRJGkxgiIyQN21bOVGD+hjSlSO2G/jSJ0Uk3U0Gk1RmEvIIlF2EZigCwgFkFjBfZgGBUNszG6DG8esABQajceCayGTCAXxrMtQwwUPUVvQpDeTRJuJjxhQrK9sW67toTu/xoPys7UzHQYacrQTbC+8kdXABczY5BAQaogf1/XK0KgbSCe8K47FMVAfGsPq7eDu4FmN7BcVZNMmByE4/i5sfSLSbflpE0t1kMOEZ7JX+0oLmPGQAgCUCAurbgOrrvreRkzI6M6zjZ7wst0YaJHjI9ZnzpNQnex1JTHkuky8gSZlEloiktyQOnHvPhH0hAYikPF7cryONww/k8/14usixoBSuW9NCKLibyL42nZGujocwRkBs6sPxPm4+4frwJBWzj8FnkjIAWG49E4G2ssuPJJrVWnoc7Ds0sMdGtrVGSpAU6w/63EzS1ORCHZyuXiYoP0uUsyckLnamifVHQoi4exTU9+sno9eYyTckjtWfb1h9A/ydjNzfNpLC/dSE4PaX/ywm6eQMJkL5jSRlxALdJNEoktElWnDewxsuaBokb7BGSpAUjO08hOtzDpKmlt89kRQ9qSDYwEsCkiH2QRohBLoikk7PYMJgeKVjT4oAuOXO14uBIu9xjhAhuXACyPpEZFoeZTmfQ1s65yVUeiTfZzlJSQdLNDQ66T3Kk0bbH++V8yT1dezWhz1v0rtFnhSb+MQWQV9ipmO5dR4SJ6oCfaYmlujgkqfFnnTST1DWWMPMJEPQEBBe8oRXReIwgSH9i/3i1GLKRQaJ+qOtApdZwtq20P8wCwkbmPZmsk9pII81kz2RWscSDWVoW7fHxHHdagJyhpPWqSq3HM74eZKCTISNld0u5TCe2444wYd409aA96QeM25PuSHshAa7OB1sp2BbJ7wbaCcnxSSdlMEkuYzsRA/tJItA/BNUtmLmRm86zsibqQHFw4zTGyoX3ion6ZQMJkrSQvPspnroDQv77DuzlaN79KIgbTFJJy33hfhodUVASaocOAoEijzppgwm/cXDo1BYhTw+BIpIenzqqcRLQEBJugQrLlwHJenCDbwE9ZSkS7DiwnW4cufep9VnsLinWUZO2kZX1r9+Yu48+NTc//jc3P3408Fx58HDQVmqXqpsStvb9z+ZZVyVeciBlG2hbApWJW3dcv/FF8/N8+f/NzgunjwdlKXqpcqmtH3/1v1ZxlWZhxxI2RbKpmBV0vb/Ac9bdncCHsuxAAAAAElFTkSuQmCC;imageBorder=#000000;" vertex="1" parent="WIyWlLk6GJQsqaUBKTNV-1">
          <mxGeometry x="550" y="414" width="169" height="197" as="geometry" />
        </mxCell>
        <mxCell id="ET8FEvUB2pL6zUA1rJ1b-6" value="" style="shape=image;verticalLabelPosition=bottom;labelBackgroundColor=#ffffff;verticalAlign=top;aspect=fixed;imageAspect=0;image=data:image/png,iVBORw0KGgoAAAANSUhEUgAAAKgAAABnCAYAAACU9QnVAAAN0ElEQVR4Ae1dX4scxxG/L5G8e/UB8gHyCZIPEPDbCPIQyIONSCAhJiFj9GATCAnEL4FIBAL5s1gJxLEg0R+QZMUitxIhSER/Ip1O1unWupMiBxJh4wrV3dVd1dtz232ztzszW4bhZnq6u6p+9evqmfVUaQP0P0WgwwhsdFg3VU0RACWokqDTCChBO+0eVU4JqhzoNAJK0E67R5WbS9B//+9z+OtHL4sOHKP/KQKLQGAuQU/8+Rm8dvYpvH1lXxxvXNiDb/9lT7RhnzfOP4Wv/Hq6CN2a55jUUI2djEkNo1EFdNk86BB3uJxDDNch7RGYS9CvvfsUzt95Di9evBDH6c09+P75p6KN+rzys532mjXOMIF6NAoEbezX9say5LTVc9jjWxH0BxfKCTodVzAajexRjcHHWhMJXbuPiFMYVyMYVRVUOKY6BafwmsbXE4DMCDqp2Tgv15JwhPMAgNUNo7GTy+X4+zRPDW5UpCOzadjcWYp1WQR969IevPOhPF47+zFUf5jOtP9icx8aI6gjoeUDj1D23LY7cpgLIgqRATHh4/AyY4s3fdwc07EhO9dhlqBNckYgdDRET+m4FN+thZAsgv7w4lN4+/KeOE5enMKb53dFG/b5ydW9RoLaCMXJJjEWUY4T1Ee8JuLkPIO6aOmiYilBjW5cD78wHEH5PWmWXrVAIIugqWfQ+9uP4ebdraJn0EaCuqhmI1kiggrnl0dQeqywnD9cBFWCtmBZi6F5BL29D3v7z8Rx58Ej+MftB6IN++w/e94YQe12HG2TyJrE1i/I2pKgNjK7yC1kyehn+1E0Ti2ESHejl5yjhS90aAKBLIJeuHEPrt74pzguT27Bpc2bog37XPv77WaCxi8annjOyWb7raAyL0b4spFyPuvryU2kSliITRShcX73wkU/U1F0xZ+q6hpf4GiuSE6s+4geVVI6NuihzcUIZBE0tcX/6+FjuHX3YdEWX6ydDlh7BNoR9F6HCOq2bv8TFP1E5CPi2vu6lwDMJejX39sD/Ekpfot/58oO/PyDj2basd+XT+/2EgxVunsIzCXo9ovP4MfXPik6rj562T1LVaNeIjCXoL20SpUeDAJK0MG4cpiGKEGH6dfBWKUEHYwrh2mIEnSYfh2MVRtb27ugh2LQVQ5s3HvwGPRQDLrKgY1PP/sM9FAMusoBfQYdzNPaMA1Rgg7Tr4OxSgk6GFcO0xAl6DD9Ohirign6rWtn4atnfymOV8//Bu5/8nwwoKgh3UGgiKAXdh5AdekMvLtzVxzY9ub1i92xSjUZDALFBP3e9QuwBS/FgW21EnQwpOiSIcUEPX7593DmyT1xYFsWQfGrd5+HlIIBE9UoJyh1v8ttNjfJpjMfoCfmR0WdTF4UbxPZAQfgwfpRjhWYPC7KlzpAj57cKiLoqdvX4QunTiaPV8/9dgEm95mgOeYjiSV5bCbpCKh4hC1MEUjZmKptCli4fiYpkM2bWAQ52nWxTxFB8Rm01RbPImjIpsRMSyoXYwlqsyuxxAw5ykWnGquI2NIzPOAQsDYS1aZ2k+lHnUykIQfySOcWxJjmRXnYZmWEqBTagk6uVE5t5VXjW6YEThBJJXIoVdlWQQlz2vHY35CUBpIx9DcmH7U32mQ7TGrCjgb08++KCOqIYQozxYQJ0cQQjueeOyeGdgm6Jb0jonGsc1KjMx3x3Lw8fz7I4Pq5UjtuQQl5LkXaTMXlMYLh/CkeHkRQIyM9iC1sq2NMfn4tkerPVTFBv3nxDLx/84Y4vnFuXPwMasnAoyeCZgnj/eGdGzkACeCjbgA7kIrmyiMoyRNk8DJ49KSoaOeV8gKRxTxePbyfjmqNBPU6+EnCibgX4WPMr9ljQxjWt7Nign538xzcefkfcXznb+eKCWqBssDidmxXe1cJmibWURI0TXJGLyRoVDyCFprphfdFAxvbo9Nigi7mGRSJSM+E9hmME5SADQSIIoSIHgHt0B/bUIYjFt/uzTlttXJBCFJ4GW4RkbMZMaQ82890Y31sVROrR+4Wj/PO355j+wKeaH3eHAG7rp4VE/TEB3+CD3e2xPH65T+WR1DjRLdl+u3aEca/DFHkaklQKqFjSt/UUFclBCWyy+2dSBAeNRhBozI5nmxoMxGdMUJs8W4B0cug/Rueq497rNzzcPKlEXUh7JigHp6WE/Tq+3Btd1scr195L4+gPQRosSojcWSkK51/MqZfPA4YiSRPLIQDRnT2VjFBW23xnYVhiYo1RNE8DSYwnluMfzjREzFRguYxQ3utCIEigu6//C986Xc/hS+ePimOV371I7i+d5T/cMKK0FGxK0egiKAr11YVWDsElKBr5/J+GawE7Ze/1k5bJejaubxfBmtlEa2s0unKMlq4QQtXdLpwh27x/drx1k5bJejaubxfBitB++WvtdNWCbp2Lu+XwUrQfvlr7bQtJqhWFlk7jqzU4CKCamWRlfpqLYUXE3TZ34OKNIwBuSjPLvmBM355fyz5BT0DhmUq+C/53QfMn7NufTktJmiryiKHQEWkQxxifJ+HIInpw3gitCEZEo6nfngjm/OU7Fz9o2gRQRdRWcQQzkWBkJXYkLzGooFwlBvvIwT2q2yukcnhIefxdpqAnMnv4Xw0Jkp9JmLYkjIjqMdjqHwUwwjncpXY/NzGpI71pklq8/lJzE7fhnp4nTK/kjfzUEqJ1S2oNYH6eEa6COHTkb9FBG1dWQQmMJmQ5RzABoKavLBQyAGEA9gY005JYk3tJNf9bRozh6BE5On4eKh8wvQKhEY5qIvTS8ijqiQIBtM3Lv7g2WUJGiquUNJfwiZBakrnxn5TGB8njKJxHb5cMkEtEjzCWB9wJ3HnybIw0vksXZkRxEc643ueOx55oWmMIAzXxS4oGRFdRDKZmDZycdsoM9OMEfLYvGws1xBt9bKcTnhtNuloLj8O2xsJingd848MfkzHT4oJ2qqyiHEGreryCLpogh47ltoOmxZLPkEDsZj3I1J5W7IIyrEyOc1QUWRmIuQOE40xu9EaELRVZRHuDEdWG0G58+05PYuZiERbnXAyI5JoZ44R7dyTxluQJmiTLrzdjvfRitlliOeLUjTpyCKoiNhMBupOdlOefT05OIKaudw2znSylusWHzEgdWkdQC8y45qiqXOYefmowDxrOedYh4dnLrrGOXykEkS0Msxw0R7pM6kbCNqkCyMPToVz03YakYFv82kdOUEpIqaKWFCER4EMOx49UTbpQXr5lzhm83QMougDu9Xl0+ItvlVlkS4j0UHdcDGyINqoYU4xBzvXwH9mwrf4E1pZpJEoi7+Bjwg8iqYkZBRzcFF2t3/81MINKZdrW3cQKN7il/2/OrsDlWqyCgSKCKqVRVbhovWWWUTQ9YZKrV8FAkrQVaCuMrMRUIJmQ6UdV4GAEnQVqKvMbAS0sohWFtHKIp9q9Y5OV+/osn90i8/ebLTjKhBQgq4CdZWZjYASNBsq7bgKBJSgq0BdZWYjUExQLdyQja12XAACRQTVwg0LQFynKEKgmKD6NVMRvtq5JQLFBF124YZgH0vlCI3ZZyZVJOfz9OwZl9kx13bsF33gzFNTUGWTBjP7747OWMP6+WxSk3YSzT8zcLENRQRdROGGw6uf66S0BJF8l+7S+9Y4RcQsypmiFCE33t5PEQ6/5I+S7+hrfPw6f4kLvYig7Qs32Fx2yhfndnoweTKcWfCUTMb/leI4ElBSHcuiZJmQPGqQTJRHdY5EYhtVKKGOjrZGv7qG2iWkjepNe8dEGnIyX0TOyWPMzUcb0OFWP5Hw57I6Qx87LZdXjW+ZCiakEk/KozZTACJKnkO7zDy8nS/DKNnP30raRAxFHwaS+zFHdLJcgnLDOTi8nafh8nbTn4gIMAklSlgZmQaCEtHJm27eTYM5G2Pa0+AbR1N+EGZIHnP9uI68MggRz8m0pLJENlVJDGk4od2ic2QS8vi8XF6MIdnHyHIQQc29xBiRsepkV+NdPyuO84vatx7NSTFB2xRuaALEOIwBhc5EAOS2HDkT8TCpwy7CmvGMbDyCRgQlPSgmkDwbaSkaSsDNGB+JJlBnEpTMIplmViSZmStEVNpVbKR1acleXrA9xoq0xPlTpJF6U2+5GFirPfX64aWVzQlqcCLDZgYvtqGYoG0KNwgnMTti0IkwzQS1oKGTMVMxzNtHgh4QsY+IoAEv5gR+yqO0j960nB25u0rQVj8zccPN9pTaJhnJZvrTFh8iCq1wW4WDVvvUr3yqziHI7uZNb/GFEZTbIR5DmB1RNA9bqFto5Gxmr4x8zF7WB7hsbKd5GNnkPHYxpyItG4IMbH5JcrbMn0POeNir4gjatnCDAcy9aHAjm9oNscybqHxJCv0rGOOLiIs2vH1ehZLkSxI9Z0aImnl9RGNbvIswZot2L1iWJzkERSG2X/IlyctjBCWyz2CI88wuLqG3W0DhcQIfj9wYvOfluSjpZEjeoy7pqB9BtpDLcoJq4YaFAH8UkyAZJZnKpORUKDFRu42QMpW0cEMhXh3vno6ieUpnVCgxu8XyoifqXRxBWz2D5iGlvRQBj0ARQQ8q3DDZ2/GT6okisCgEigi6KKE6jyKQi4ASNBcp7bcSBJSgK4FdheYioATNRUr7rQSBjftbTzqduL+lhRXW2j8b04+fwf3tJ/Dw0S48ePRk5ri/vTPTluqXamsz9t7DxyuRqzrPciDlW2xrg1Xu2P8Dt3P31IOnSDoAAAAASUVORK5CYII=;imageBorder=#000000;" vertex="1" parent="WIyWlLk6GJQsqaUBKTNV-1">
          <mxGeometry x="270" y="80" width="168" height="103" as="geometry" />
        </mxCell>
        <mxCell id="ET8FEvUB2pL6zUA1rJ1b-7" value="" style="shape=image;verticalLabelPosition=bottom;labelBackgroundColor=#ffffff;verticalAlign=top;aspect=fixed;imageAspect=0;image=data:image/png,iVBORw0KGgoAAAANSUhEUgAAAKIAAABICAYAAAB1LS7/AAALG0lEQVR4Ae1dzY9cRxHfv4JzmBzIIYIbB4KUE0qCOCEhIQ7RcOBLSBy45vYA4QMCRGQsQEi7CZHiaGJlFfBGiowDG/xxyKyV4NjYTnaTdXY2s7bXu3ZAdhwVqq6u7uo3/d70fOzMe/tqpNa86VddXf2rX1f3W3c9L4B+FIE5I7B35xNYmLMN2r0iAEpEJUElEFAiVsINakQpES/ufArnPrqXXDb3HyiiisBYCJQS8Yt/2oYjqzeC8svVG/D0K/2gjmUeW/p4LCO0kSJQSsTPH+3B/v5+UG7e3ofHFreDOpZB+YP69DttyLqkvZu1oNXuQP+gOhN6k/vqZtDuTNOiPnTaLWjxoIVNhZfdDFqtNkzVjMLOpntjdCLu7sFXl2ZMxH4H2q2WI+J0IZiGti5krdb8iTiNocxJx1Ai/uivfZDlh6/24Wt/2Q7q+P5DR7cKh4ERrdVqUXHRzM56rrezn2Tb0MaI0PomPM33rbOTopQlL/XJUYIIw1GG++n089HHE0v2RdcZZMYutC2DLsTGYPsxdnPfhdAAgJTnCWf1tttmEppxONwAjC0WFxeJcxExKlNmxhzvlRLxoaM9OH11d6C8cGZ9oA7lCpdmAxAD7J1siMDgChCZtG5VykVESY44dtaxVoGXD+s9EQHoGomFvPBLnG/LzrfEsjYRCfyYwBKTyRHojRrLhKOthpdngkubCEMjw7hJbITdhTJRG+ZfWUrE2B5xb28PzqxdHmmP6MGNDDgSuUheRBIJtuHJkD1iTt73WkxEEG0GyGedLus5ig0QMRiPXQFK922SxN5SJjRHb28fE5R107exwxGxREZ2UaHrUiI+cmwLrqxfD8p/3t+E1bfeDepY5uHfx5fmIiIax7KTHIgcnWZMRF5is8zs9zgaS/LJ62FE5Ig43NdjEpEjouzAYRhGWSlS1etSIn7hWA/WN8Py/odb8OZblwbqUe7hoj2iAYiXZgtSdoqeCi2gMgrKawOciFb4OyREDNpY5BP7ORnheCKQYruPtcthrq+wX0kgeR2SIGwTszWU99sCxsn+qUBgEODjyBduKQplYiZUoK6UiEVL89kRl2YcJwFjlxOezZagtBGnTTlGogBEA5Il1sQPK6wb7WhDluEDlIi8/NDA4TCZiJY0+PBAA/APGIH+Io/78SEW1H0xEd2yXfqwImya+hN90TjGrx+PiBdG2yOOb562bAoCpUT86eu78K2Xd5LLr8/vzxC3cMbTn2lsxBURbYYGlXZllmgbwQJbeXUobX34b5YS8fAPX0dYFQSUiFXxRMPtUCI2nABVGb4SsSqeaLgdSsSGE6AqwzdE3NzqgxbFYJ4c6H18Exbe29gCLYrBPDlwvbcDCw8efAZaFIN5cmB3/66mk1Zln9RkO/Rhpcner9DYlYgVckaTTVEiNtn7FRq7ErFCzmiyKclE/NnaG/CV5T/CEytLruDvn6/9o8n46dinhEAyEZ9aeQ4+gHtBOdG7Blg/9IMHYAuPO9Fxrgqe3CoZVqLNA7nOeAA2chA3f8A16Fked5Mnx6WeoEEtf8yGiKXQJDq1VEcVb3Yhk5PPJVV5AuEZRZfbIlIB5GjMaXU7SwN5PE0u9ctGNbxOJuKXTxyDL3WeDcojx38LWD/0IyJicEDUAGyJmGEKJx1sJdyL6mVvFGHoyD8d/6e3HNDRe46y3pk2InW4LyQFyWLfTIogrYGVmDHYnGabb+Nv2QO57pg/pSTwfZNohaQxZPNElCPh4/++Dd4lDNguk88iyId2hvKhxjr9Sibi46/+GY5cPBOUH587CVg/9MNENI7g5cWSgpPbGWCUlYnrFmlDDpZxHRKJ2FGG5Eae6tlJIRH9azxoUpA9Tj/bavoQ0drYxSTK19sxufHhfZZ1xiI7oR0szfl7jA3Xi36wymFj7+NvHiQ3qel3MhGns0ckYE3kcwBSHZOJ0jTRibn6gCCMdjnhuIs8EQfrrZPbHbgk30jBR/uxQUACTxCvm23Cb7QrTyqTQVZARJSPENdGRLY3tMHqG5ic0o76XCcT8cmTi/Cvj9aD8od/n4MnTy4NH+0AiYhASMismyOcceKcieg8L4Z2UER0UVT05S5z2ORxxLbNI+ISdG9uB2XxytpoRAyA46hC3+6p2jl8iBOMs4oiomxr9RtyFcn7iNg3/XN0EnqcXdgx1ZNK3krIiIf3WYdj1eDSHOAh5MSljLjhw4q1OTZpRPu6XCZHxOkszTKvmPdq1tlZ5nKBCVtBAkQzHw0MwsXEMg40S6vNX04louGTeGEUO7qIiDl53mJg/3ztyGCiHxOUxscPaPyN3YVthVwu+iEx2TzXR00vkomIS/Dare2gLF5NjIg1BWcysyf580oXOkNfcjiJ/slGdhCtk4n4xN8WYfX6e0E59s5ZwL2jfuIIhJEtLhOt7XaGvmzzMEVDxCCZiBMtzVG0tVIR8AhMTMSvp/wTn+9PrxSBKALJRHz24jlovfAr+NziL1zB389dvRBVrJWKwCgIJBNxFKUqqwiMioAScVTEVP5AEFAiHgisqnRUBAwR79//FLQoBvPkwO7eXVjY3NoBLYrBPDnQ69/SvOZRlxGVnz4CukecPqaqcQwElIhjgKZNpo+AEnH6mKrGMRBQIo4BmjaZPgLJRLx1739wensjKMsfXoYP7tyevlWqsXEIJBPxe6vL8JPzK/DM2mlXvrv6Cnx/dblxoOmAp49AMhHxlE0+wf7l3lU42NM3dDq5jqeQ8Szi0Aw7PLHNgzOnt21aau4ktnO7OSVOMu7090ASv5Ou1YUScW7uwknGmX6Y8sApBPR/DTI/vXlCxpCW26K8b+vl63WVTMRHX/qdO/4lj4JhfcqHcohpNnuQKeeE8jUksBwZKKGd5aM6RJSIRSCKTPQ/jpp+jDKKtDKqUPKWjcAdzD9mW6nOt+UkKWujSxslolCyfwanZESM2SgjGd7nQRaBaXQwRtZO+/9FmnzpYe2L9FakPpmIEy3NEkQ3m0MyGMLgkjQgaxOEBurRKURk8kHOORZgo5fJYvrG6BH27ROzqJ4zCqmtjTaufxGZOHHKGEC2MLlpAiBT4jYGR/1Rt/3veQ3hY0szyrj6nP1FedQVIVmKGTMhoneKNCl0KL0FIYMXM87uQ1lPrqgOR2qpN7w27ZwDuc+cI52Ti+o5CmbQNX1yNOTv/KSw2YpI0KiN2I9fTo2NPFnyrxnh4TgbPS5MesLJ6+MmdfpOJiImT7126e2g/Ob835PymqMkcon0Fi7rsHoQkZdI6WoZ+UYjoo/IpM9sQfJLLRIxR1YvEhJbWlWX62QiYvLUtfufBOWlzcvpr6VjEA3hBpdHF7kk4Db60MonHOF0SOfnopn1gNNrfnNEpAcC3pcZx5uomdMho5CdKLwd4Gjk9UtbBBEjSzO2DZbmYFLmbHBM8rYPRlm8F5scrnHlL5KJONEekfdS9gGAncj7p9SHFeP0vA5L1qK9lScK+kI40xDePpDgm8iSicjLtFyWWbdPeDf9csiK2Yj9833THCea1enqcwSTNvODCrd1bbCifp9kImKC/RsbV4Jy9MKbSUtz/WCZhcUY+YZHsX6nA5JzMcsa9eebp1aW4J29G0F5/trbaUtzDD2to9eolEayPnQ6Q2iYj6w1xTU5Ik66NNcUHzV7RgiMRMQT29dAliPvnoVvnzo+I1O1m8OMQDIR/9nbgO+cOg7fWHnelR+sLsOFm9uHGR8d24wQSCbijOzRbhqKgBKxoY6v2rDv3P2vZvFVzSlNtGd7ZxcWbu/dBS2Kwbw4cGt3H9Y3evB/3y/ROurKWyYAAAAASUVORK5CYII=;imageBorder=#000000;" vertex="1" parent="WIyWlLk6GJQsqaUBKTNV-1">
          <mxGeometry x="719" y="150" width="162" height="72" as="geometry" />
        </mxCell>
        <mxCell id="ET8FEvUB2pL6zUA1rJ1b-8" value="" style="shape=image;verticalLabelPosition=bottom;labelBackgroundColor=#ffffff;verticalAlign=top;aspect=fixed;imageAspect=0;image=data:image/png,iVBORw0KGgoAAAANSUhEUgAAAJ0AAACbCAYAAAB4f5nLAAAVm0lEQVR4Ae1dy89kRRX//gpWbvzYuBLdigvDI8SFO000bhoXblzIQ0B0dyMJMRAMZFBBBNQQDI3yHIbXAMIMr9gzGGB4OMMMMDMf3zyAAR8DSJnzqjpVt+6jH/fOne7TSaVv1606dc7v/OrU7du3Tq85exkCPSOwdvz9E86KYdAnB9Y++PBjZ8Uw6JMDaz1HVhvOEHBGOiNB7wgY6XqH3AY00hkHekfASNc75DZglnTPHTzppikGoyEwDQIl0t2y+2P37fGm++WO41G5/NGj7orHjkV10OY7dx9xd+359zRjWtsVR6BEuute+Mhd/fRRd+LEiaj8audR95sXjkV10AbaQp+ZX5tjN1pfd8XEOTcp3Pr6yI03SdrmeET10wjX8qbpZ217Q6A16a7bedT9tmvSabONPBqNpTrOku4H9226i7fF5Xt3b7jv/2WjVP/DBzZrIt3EFevrbh1LiGAU0ah+VBSZSKf7rbvReDvJwXDoHERAiYhyPBqBvJEb71GRc6lctTzGZEl3xaNH3LbX3o/KeLLhoKT1P33sSAXpNt14BIShtZLIUbiJY0JFBMosr1Gky/UhEpNc7g9+ifotj6OWyZIs6XLXdG/uP+j2vn2o/TUdO5+inIp2aSTSJNHXdLo+S1RNOhVFo37L5KrlsSVLuht3HEKCAcmk7H5tn3vptX3+s9Rv2XE4H+nY+RLpPGQpKfRnI52HaZkPsqT79Y6DDiKbLrte3ed279kX1cH5G6tI52h5XR+NHSywk2Ld0XFuqWxaXjOy+FuuXNPJN15bXodP1yzpcsvrP2F5PTDF8gq2cxSb/osEdA5fJiBayrUbfFkoivIXCSPd8MkmGrYm3dTXdDKCvRsCCQIl0j377kl39m3vuS9uORyVM2885M7cciiqgzbQ9pUjnyZi7aMhUI1AiXTVTe2MIbAYBIx0i8HRpEyBgJFuCrCs6WIQMNItBkeTMgUCRropwLKmi0Fg7eDho86KYdAnB9b27j/krBgGfXJg7ZNPP3NWDIM+OWDXdIu5TDEpUyBgpJsCLGu6GASMdIvB0aRMgYCRbgqwrOliEDDSLQZHkzIFArWk++Dkf9xXxje4M267Kirrd1zj4Jy9DIFZEKgl3ROH97uf73rCHXAno3LBQ7c7OLeIFz6cSZteXaGfBuaNO4sYo1oGPSjay1D4QCtsTBrCC+xW+0qmVQlsQdD4iW7Z8dcSyAGRLliOj7a3NCD0muWoR9Lh/o+hkG4WrKQPEI3sCAEDzhGWpT0x0k2915Luz/tedmeNb3DffPgPUTnzjmscnGt+kSLVj6vzo+dIMJ5922GXP+0eKyY0k7wh4Djcc0H1RREyAiBRZcat552r2xCnmXQoh/fNcnYB3XZd5OH4hStgjy0IiB7HD9sto3rUV+HAk0nLF/vIiQXu8ZU6xNjbTYhj38rxY2yuvTLVC7BhrDd5D3FBYyLurJ+2AXHmvS6wZznSTZEA9Ko6p5rVJ0V84J033Nfuvcld+PQ9UfnSndc5OFf/YuNlPfHAsaOxntqgAxUQHlTe3OMN8TJ0P9Bi4iYyDvcR7LyO0FfI45c6JoMmAh5XyEMZYVnanExw0xGOkegmOntHqPHLEUJvp8xNmEASh/Zx+5rxCVPcEUUTBLesjPg4yENdIlxANuGrbdAbrErYEgCtl+zaSDffNR071EcfjiQYyQKwwQEBiLakE1CEWNjPR0mppfcwjq4nHQXEtE1JniKOl6KjnY9qgZi+neqr5UpUB1twfIkoviMdQB/UE8bTbUrjx4ShZY/w9jLUBI/HZB/g3mRlQzShVL3XkcYUHH11xUEj6S7Z+ZB7fuPtqJx7/+9bfJEIJIrGVuBDfXB0aI9OIYSjLAGYjgIBT4Bl4ImEeQDCOFqbCtJVyUt0J/LwBPKOCXbokSiVRnB+OmE8FppQWgDILyaIl/TNj59gg8EOCAt6yWQPOs5PuiBLq1t33Ei6S5/d5l7cPBiV8x5oQzoyPgrzaDQoKWkgdJugfCAd75flKYT1laRjQJkwpVmnCYNtYMZqXdQEwPMZeVoGOzMiQEY3b4vqi46OCEB4xARI3Ub4jEYh0oDspvFRyubYFSNZWqEmYB2PKfUxcQPu5I+ALbQXIqf6Vn9uJN18t0xAKZVSgi/SQwKdzBcJubgVYqKz+IsFXPBnHEvXOTzOaOzGyhnadHI2tSNnkX4CIp7HDzwZQHctTxEH5WrdxpC4Rxyg7Y7JK5MQHcnYCHFiAmjN6bh0Pjt+TBjuiSuG2NlMunjPcvpFImeDvkwoax7XNJLushcecf/48EhUzn/w1hbLazyQfTqFCOjIPYMaPlpjXyC1TK4ZhDlX/+0Vvkhc9MyD7m8H3ozKOffdYqSbDe/+e3E0lGjaTgEV6TEaJyQDmSFsthOpWjVGuvmWVzWSHRoCjICRzqjQOwK1pIMf9c+66/rox3748R/q7GUIzIpALelmFWr9DIE6BIx0dejYuU4QMNJ1AqsJrUOgJ9Lpm7Dz3+epM8jODR+BXkgnd9/9rR24Wek/DB8k03CxCHRPOryROE5+hoHf8MJviIs1yaQNHYGOSQfLKtzNpjvcOrjB74jT3SUfOpSmX1sEOiUdLKtEtDLp8Ed/zcK2Glu70x6BDkmnn7SQJ02EhPETrac9imbAVAh0SDqtRznS2fKq8Vmt41NEOiChfZFYLaoFa3siXRgQj+yWSQLIan08BaSzKLdaFCtbewpIV1bCalYLASPdavl7ENYa6QbhhtVSwki3Wv4ehLVGukG4YbWUWDvw7nvOimHQJwfWPvvsf86KYdAnB2x5Xa2VbRDWGukG4YbVUsJIt1r+HoS1RrpBuGG1lDDSrZa/B2FtLemO8w5/yKauC+zwt5T+g/DfaalELenmS//aDg/MubbQx9bLD4y200S30lsmdX0Hx3Om8VqsRmD3HM85Zh5ZK+XUa5MqrOusTStPOkzllaTiWiyTepIGkz2xAycUJZaUfJigTG2kg7T9kL4f0vrr8oU/Xt0upb8MmmScrMvEWRQjnwVd9stClke/cyySGWalbzuilPsSPH19Ls8auoMiI2WSFHkc6QaR6p8jt/r7AmER2OZxwZSuvAclwkjaUBQTfO/UfbE9EEYinR6Ts6BK9nolO83QGXQBDUHGyI3Hkj1VtG4gHaTt/9Yjf3JXv7IzKl+9e0uLlP7O5VPes0OzKf0FIJX/F3UVMCjnrRjno6SOFgwKka4iNX+wP85oDnIwvSzpKIn/kLgosEIeji+ErbKbHCm6e8Io3b09kc3UT3RRqgMYrC+na0Xdq8Ynm2R8vRsvjCs4x2Pi+UzaXcSFx4RjmeigI/TBsbSOrHxtpFvINZ2aGehQBbIoR4ASKKI4GsQRMspni/1h9gUnY1vpmNljq2X5ZgwAnPOO4DrKyRtADE6hBiV5iU3YKrXbRxE/iAjLRvZg8544w3zUHTCjJc07Wc5nxw821af6jyeIJzfKDLj7eolqsoZCOyZjaCOKNUQ6IN3FO7e6HQffisq597dL/0rO4XVeGJ84KDi0TLoyGYLi2A9IORq77QX/gw2eJsCQXAw8yVH1QYybinRV8hKbsna3JF3Z5oQASnc4hLHon4UCGarH16STvoG4IQF2Mqb4riXpvG900BASNl3TAel+8tzDbnJsIyrnPdAu0bV2KAKBA2tykXG5SEeKy4Vp6EMgM/IChnY6EyOQjmXoeuU4HEcA8XLCeNAU24BAlJGR5/uR4LzdsSMRD5Cp+uZtjvsp1WUwtz4ahchS+VcDsU3YuTLVfzIm6IgYxfXBp0LgknZkn+DLp7tdXhFQvhDVKe99fZrSvzwTwzIjsZvAiy/8yWisi75IEEhUX53qH8HjWYlk1RflmnS8dJfkKeIgrt6+dVdou1ku6R6TV67ZtC46QpcjoDg4JkL1+BnSlS5FoA1EzEQm2CPE4ckLNqRfJMQG0czrIn35RCPpLnv+Ybfr+EZUzm8Z6aLB7cPwENCRewbtfLTGvkBUWZnqhTWS7qIdD7qn390blXMtpX89qqfDWY7G1RE0Z4RaOXBlSEgGMmmpyHX2dY2k6/rmsNfEDlYGgZlJ99SC/tl6ZZA2Qz0CtaSDH/W/fu9NpZT+UGcvQ2BWBGpJN6tQ62cI1CFgpKtDx851gkC3pFP3q8LPVu2/WndisQk95Qh0SDq50Ug2Rnfb4f5Qi6/WpxwdU6ATBDokXaJvciPSsqsn+KzQx95I53+/ZHDh83Q3JlfIK0tuaj+k07/dCaAt715Lc3tfHgQ6J10a4Tx0RjoPxaoddEq6uiW07tyqOWHV7O2OdOoRGHqUBx5xkh+I4bZJeOhw1UBfdXu7I10dsnbLpA6dpT93CkhnUW7pWdVg4CkgXYNGdnrpETDSLb2Lh2egkW54Pll6jYx0S+/i4RlopBueT5ZeIyPd0rt4eAau7X97w1kxDPrkwNrnn3/urBgGfXLAltfhrT5Lr5GRbuldPDwDjXTD88nSa2SkW3oXD89AI93wfLL0GtWS7q2PPnBfvuv6KJ0/pPaHOkvpv/Tc6MzAWtLNl/6VMvwsbKeh32cRtjZWPgqfgQvbJnnSMs0WUjWNXgsZsE6Ix62uUc25ScEbqCi/nTyQm9tUpVOH1e32Ow1JFwDSRoba/FGfpJtGr7y2Q6mduIInKtjkicZPhUcBBcgN6cN8ZeibWlNLuvlS+seRDp3O2S698jqzZZq4mtv6R9z9jOVIt52NhIyQkm5erNOPyjNoRDpK9x+DQ3rKDJaMkxStClfI3wkIqKyXH1PXQ6X6TG10hJBH9MkGSa8f1I8xo3Sz3EfJBV1RNtRx5tH14nFMiB3pBbZjm7Hb5JzHNGacKDzorDOjUtpbL0+wxfdET5RduPF4pEhX3b+WdPOl9FeKIWCyP4KcAMZE0UeBM/FeSGQggZh0m5zytYQK9RFiywwl0rMDkZRyPHETySzLjhlvsm5+T4dzk6BUyEHM6VxJhaBriHShDn2lbPRkjpzJ44pN0J6Ps+MjrkJk6pvaHbKbE+76PMkO/qD/fpBoBboH2ZGaiJ/4k/wAatJE9c6jCSi2KAG1pFvUNV2qjBBB3pU+/hAdp6NK5DACIzjXd4M0z9m/GooIXmpD5KBoR7Lj9iwfnUw5lNFhCfiiRdCLHOqjKNoD8rWjpRe/g0y1pEU+S8fHz8H5GBmxryJMhFtYFbxPEhm+HjFSsr2aCb7Qn5UMfcu2+O5tsqtfDOlf39kblXbpX8MsT5URssm7VoiWFLl+CDLiGbtA0iHo4owAKOrMzvcRgD97e1qRjnSNbIwiZHzG/9MMElOczpMiHT8hjO87CcSNcRM7VVRKZHjbcqTL2IsTzF8KqQkJZqkJpK1sjHSXPf+I2/3+e1Fpl+g6IYxfqsIsjxwrxmvD8Fhfv4RrE1gCQ0TRJtG46TISjaUjHYwr5EIdcpFO2SLXoTi7gy1CTBg36MVkkXAlNtaSjpfJkb4+qhjfy1P2w7dNSPEPAMHL26d1VaSLdNH6wrGaMBUEUiMPa3kFxdDpPCM8IPyfB7L8kG/YcGg7Umn4I/AUMeSiWlvPQJJcihaVpNNti7G/GI/ba/2T/7viiYFj6Ujk9SJnky7ixJgAker4oXw+4KfGz5EO7ZFx2pCO2/DSj1801HJJvlI+UVFN5pLojzqqSph86qM0q/9DOrimu/S5be7vRw9Fpe2fl/hR7KA/BPzknGVIIlcICtW3PZqlV/dtXF4v2bnVPXtof1Ta/k1Ts2LWYpEISDTMRZfqcXQkLv9NJsgMJKyWkp6pinLQrpF0ltI/hdM+z4vAzKSzlP7zQr+6/WtJV5XS/7uP37m6iJnlcyNQS7q5pZsAQyCDgJEuA4pVdYuAka5bfE16BoG1/578xFkxDPrkwNrBjaPOimHQJwdsec2Ef6vqFgEjXbf4mvQMAka6DChW1S0CRrpu8TXpGQSMdBlQrKpbBBpJd//br7tf7H4qKlBnL0NgVgRqSffSsQ3caA1PmugCm61hI7a9DIFZEKgl3Xwbc/Qj0bOoNkWf7BO0U/Sfpql+nH6afl20neuBTXpimJ6Vi5+pyz0/Fx7B1/1mM6pT0kWKzqZfu159kq7PsdpZP2Or8GQv+MkTTe9LEclos2xNpMq6HfzSreq9lnS3vTFxZ9x2VbbAudqXKCp7BdRn2C9AT7fCDOMNvrhxJ3kWXzbMRAPpNrwXgIlQFLwbSfVD4vvn+tV+iUJtpNb7HGRzNYypdUaFVURIP/vN4qRfUcBmcLVXAcUp5+oNMXqcLDZXumtHghnrBTZCP7RVj0kY+KeHlW2oE2MDTwT7Nhl8wzmwubyRGnd6hUaRhKYPtaSbd3nVkS67WZiBD7Msv/FZG4GPZAupBHR2GmFAxJDjsEeaHSObgv3uNOc2JxMX9luLI7Wc0JeICORVdaCg6BLtFtOa6zbx9rw22OjHxn1kqhgzYEQ6Cr7oD0/SeEJ4TZPLB+gDWKLMiGRExobQ48Xqg95Ih4MyOXBnFBqgHStqEVDx7ik5R9sOBURfi3LjPaIaHwSbo50HUIgrQlREwOiRgC/NAulId9KTIyxGttjRvh8eBEdpEtGpkCajvPNekxTkqwjvSaSiqJARbVDkknqc7IKX1hD0S9ozkGXSKT20iBbHjaT70ZP3uK2v7o7KN+652UEUbHqhs1FpJhI7OhiQkI5JSXYmAPBgILM16ZhI1J50yJGOSMlOEMe0Ip1ykAeDxinpqPQvJtphLbHBCDpy4+xG6mTMyAalo9TnSJexV09WP7mYhH5jt18iPACNB42k+9lku9v32b+icsHW22ciHenLIOOHDOkkAiEBFWBsChI2alO4CbaVmUvyUbwGkgkI9ZGM5FoLgUb5WjflVD+WtoOXTnVdWkU6WoZHPnWEbNJuxAbsr9xIrfTjdvpaT3QJtkF7hS1gI5hWUCYECmkA+AjmUtfuvZF08+wGQ0X5wliO8eJ6nLtuAoXJ0bT8ho3PqSl6BhJ3YWkSAMgBkRNhaVUbt1PS0ZLJF+DjsRuJLCYq6iNOkToaGLM6URQQJyYESJXnaz4hApxuh43gI+Mw0VGvZEwf0XhZlksL+HLDdsCYpAP19ZFM2iYXa6gjgUoWwRj6c8nO6opG0v346fvdE2+9HpVz7vtdq0hXPaydmQkBTaYZBOBk9UQJt0xmEOU6u2UC122Xv/ioe/mjY1E5/8FbjXSzeGqOPhINPWdayUqjmKwG1DlEu1bCQqM5ohwIaYx08yyvQUs7MgQCArWk23XssLvwmXvcXzf2RuXs+2528LusvQyBWRCoJR0IvP6V51yx68moQJ29DIFZEWgk3ayCrZ8hUIWAka4KGavvDAEjXWfQmuAqBNaOv3/CWTEM+uTA2qHDx5wVw6BPDvwfo2ctcxrX1FYAAAAASUVORK5CYII=;imageBorder=#000000;" vertex="1" parent="WIyWlLk6GJQsqaUBKTNV-1">
          <mxGeometry x="270" y="480" width="157" height="155" as="geometry" />
        </mxCell>
        <mxCell id="ET8FEvUB2pL6zUA1rJ1b-9" value="" style="shape=image;verticalLabelPosition=bottom;labelBackgroundColor=#ffffff;verticalAlign=top;aspect=fixed;imageAspect=0;image=data:image/png,iVBORw0KGgoAAAANSUhEUgAAAKMAAAB7CAYAAAAYATDCAAARLUlEQVR4Ae2dz48cRxXH80/AEYnxhVPCPX9AIiIOSAEpiMOYAznACYUTXOgQKaBIThwhFDgkdkKI2SbgHBJHyF6H4MQ2YXbjxF4cx2s7/rG7s/Z67fUPdmP80HuvXv3oHzNd0zM7v56l0vRUV72q/tanX/Ws61U/APpPFRiyAltf3oOLl9vwwJ27m6BJNRgmA7du32UYl1augSbVYJgMLK9eZxiH7KG1eVUA7DStWqgCw1ZAYRz2CGj7VgGF0UqhB8NWQGEc9gho+1YBhdFKoQfDVkBhHPYIaPtWAYTxi0sr8IDNyRz89O/X4ZHXV+DxtB2kb+9rw3dmwjws8/ArK3Djv/czVkboayuBRqMJaXuE+qRdIQW6esbvvXkVDp1Zh5s3bwbph2+14YPF60EelkEgP7y0qfKqAtEK9Azjzv1tOHouD2kpjBmP1E6b0Ggk0AKAVtKARsOkZgrktNopNBsNSBL0ZHyuSe6sDWnTK99oQGF+gpYBuJ0mNKlOE9JD6hmjKdmmCpVgfOa9a/DS8bUgPZ6uQlE+Tt/FnrEFSRYcBIYgZShBAESOzHHDQMXAmnKMmYGSp1yCTkD2wGcYG2DMmPZ0mt4mvqKaqQTjL2evwu4PrwXp2dkl2HVkNcjDMuUwGg+IwPjQUXcZVPGABE6mjO9JsYpAJrCSGQGYPKkHqf+M6IEapZQWHrgClWAsemacX1iEpfbVuGdGA0KSNKFhvJhAlQOwI4wCr/OU7DmNx/OAY/ueJ/TODVxdbSBKgWow/mcVLi+H6V+fnIGzX1zJ5f/gzZWSaRr75Z73+DlPnhcNVASKmVI7wCjPmHbqFbsB4OoZo0gYgcKVYJw9cQFOnD4XpCOtBWidOhvkYZkn91/pAKNMr56n8qfWZpN+tBCopTCKV/R+xCCEBmSa6o0dhFU94whQVrELlWAsmqbnTp2F5dhpumKntNh0KqAwTue4j+RVd4UR/wfm0T+twHfTdpB+tH8Jvv+XfP7I/w/MSA6DdgoV6AqjyqQKbJcCCuN2Ka3tdFVAYewqkRbYLgUUxu1SWtvpqgDC2HEJWVcLWkAV6JMC1jNeXbsBmlSDYTKwunaD46bPnr8CmlSDYTJw4eIKw7hx6w5oUg2GycCNjTu6o0SfHnnUTE0F7DNjTTtaXRWorYDCWFtCNdAvBRTGfimpdmorEAXjuY11eOLQPvjWgb1B2n3yaO2OqAFVIArGp+cOw7MnP4A3lz4PUuP151RJVaC2AlEwJnOHCcILsAl++uorz9TuiBpQBaJgfOrYu/CTY+/ArxeOBqkajBgu4IUbZLSn8AAX1JI5O5pfK/UZwyeC6+I4IJfl4oIoZMKdCC6awyc41MIWaSUmZjwoOrZfomB88v398I03dsGDMy8G6asv1/eMlQZ27GRG0FwEI4CL3xGgwuvm8xKsZi+X4oG8oDUTeIbnW0n5DW7rj8lBFIz1pmnnGf27PAhZTRIK9Pc9BA9WPt/pazyNt/MEDzTn24HFgC0aRFM+5R0rsK2kxXl+u3YTAYrBFqD4GijUtpHAQdwVQ6jyA8K8PNs+RTCiHQZOirjr4COMfHR1OI80sAA6HelszvNmLY7Pd4Rx8fyV8o2f/EtBGF9b/BRObqwFKW6a9sU0YOSi+NyAMbgGBvIQWU9gQDKj6waO8+3AZmAMbgJ5fCCgBBjXDt8QtBGLtyuGiTykdl1/JRwXsxGsPHR+WV9dPPa1cedc+1LGt4t15GZxdcbxKNoz/nb+CMyeOx2kOBglVrphA/lROAcRyygeIswvGqzO0JXBmM+XLVUSaBH0Xiis9Y4hSBYSfxq1FGC/HNA2u9Qz8nXk4fWhRythHxj+onZci+NyFA0j/lnH/yWNx7EwsjgsPk6NCEYIHQObz99OGIu8TQhC/2Asui6HUKhNtmwZ9K7+uBxFw5he/gwW790OUhyMKKYb6MADynTp3f2dBwJlZqiLPB3almc6OvaeGYvK83OiTNPu2c31oQRGr79+f7DNvKcLbbCnc3oUguN73lYCO+zzI5YO9SysPyaZ0TDuOj4Lb5+aD1IcjPQT0G5zFzy7NRNIZLs7M4oOBBE+OyWVw8g7nJk/h+APnMowypQtU7XAEoJEfRPa/KldYMFnUDlvgQht0E1itvyjH1CyUxvaEzvyGGM2tJpZ8TZjLWzDNjZWB9Ew9j5Nj5Uufeos3igCcrzJVmr2quxQVf+0o/8D0wGPzKmePVcL0m57PfdsO9PHEfka5RlxQcTDb/0BHj2wJ0gPzewekcvRboyzAlEwjvOFat9HXwGFcfTHaGp6qDBOzVCP/oUqjKM/RlPTQwvjhUsroEk1GCYDl5ZWOVT13r3/gSbVYJgM3N3c0r12pmYeHPELtdP0iPdTuzcFCiiMUzDI43KJCuO4jNQU9FNhnIJBHpdLjIJxduk8PDizGx55Z0+QHjuwd1yuV/s5wgpEwVgvIGuEVSjrGq6K8dYUFhcrWCZGaxuz6y6lNq9npLWL1naBDSk+RZ8KY83BxgW24fpZXuzbsKvWwwZwMS2uMr9vVqjbugiw/RLWmZZvUTBS3PS+5+Gh9MUgVVvpnVnhTSGiJs9f4W29hTcE5KG8VeCmTNkqcF6BnbqXpCct90rgTMhDsLpaAKGwV/OidOlP0UpuXPIv5013se1mmpZsWBCu8uZ+8kvasfokLZT1Rq/yYRSMuKPEj4++Tfvt4J47kqrC2Go54e1AIGjWi4SDZa+ipAzZsDBgXZ4aKV9sGog45sXZt+1TI1LXeDXxUHaa5nyJmxHvRmENUhbtYFvUH7Fnr8AchPlh/zkKUNrI1pyG71Ew9uWZkcAysSU4kPRdlubzoPvjS4NQUiYcTDfQZfkSLMXNSnyL+2ymC+RNLRAWRmfbhwLbsWXJq8pzYnH5bFx02E8zS+Qu3m9xso+jYfz9yeNw5PK5IFXzjMbrGE9GAzFkGB1IMsihB6QbpYOnC2D0p3EbYCVwin2E1EUMWg3s6aIALjk5+Z/RMO45Mweta8tBioGRb3wDZk0YA69K3tObpgumb98zEgj2+VEgKYMxzKeIvqQF97HNQk9W5hldPHjuB4yJAMzfIJMPoVxhNIx1ogMZAJwWm5Cm5s8mJVOwdJA+S8swRPQjhPbpqQ4j2vXDRBmCEDrnGam02wcogFgeMfwehzBiO45Zv8/uGZpvlKwn9W1O/nE0jHs//xjm1paDVM0zTqaYeIM50EqusZ1C6nNXVAyn+a6GiipOTh7CWPl1bfgD5qVPj8L7l84GaZphrLKjQztNoTOL6JGn2yviLRXtGetM05NzD+uVDEIBhXEQqqrNnhSIgvEfS+cBA/ZxWvbTU8cO9NS4VlIFfAWiYPQr6rEq0G8FFMZ+K6r2elZAYexZOq3YbwUsjFtbX4Im1WCYDNy5u8lx0xevrIIm1WCYDFxZvqrvm+73dKP2elPATtO9VddaqkD/FFAY+6elWqqpgMJYU0Ct3j8FFMb+aamWaiqAMFZ+XRu2dXj5fJD2f3EaTlxbrtkNra4KRK7a2XNmHh4/+Ab8fG42SN9MX1QtVYHaCkRN0/UCssLVz7V7PhIGeGV4tzWxNgSVVqxLAFjZ+kW2ySG0bhW5tTES1z2YTiiMg9HVWbUvKA9vxna6Exo2fMEV94O0bEgsnc7HaLtak3EUBeMTB/8cLB3zl5F1l0MGoyzOxHiZ3HujTQinjbjz40mkVbbN74E2MTZtPIf5rrwdaPRQzRRSfLcg2sXgLeu1nMdyMTvuHYRsg99/3Zw5RaGt7Bl9jyY2MM95N+ktfVI0YfZcmTZcE9vu5oWDNsbsSxSM/ZmmywQ3g2nUpkE3EX6Fwf+B0AydRNZJ9F5HGC2kXJej/Ly+GWCJadlpwr4XWyDi8thlv782kMsG9QedpS/kGXNkOXtUiG4QacvFVXtvDswbHuOckYNRgLIDKuJaz+W8lJwqha6TZ7RTZAiATI0El+eNOQLRbJNiw2BdXann+uTgCfLwS+7NqFLC2aOcLIwGbv89llJzEj6jYXz+o1k4sHAiSNUCsngqTdsseB66zvmyGxhBkvMoJdNxXRhz7WQ8oOcxq8Io/S/2bmUaGNQURnfP4TQ9c+k0fL51O0hxMJp4ZTPQNKWSpykbCM7n4nycD5wvg9G36dUNPI5v3wXZk2eW/XoMdHgDBdOxB2OQL/Yz0zSWsTehkzU4ElgxMwc42sXNA4Iak/Ml2jP2Hh0ontFMX2YKTCq8B5oGiMp7wf/BGJTBaDyZqUs/cJBqgYVslMAYvOPZPRoE0Hkwoim6seS6KDYVbZsfMwimOcd/tsEfT/w8GEJqbhosax8H+GLRfoGzDpQY5y/RMP7uxAdw+PxnQarmGcdZphp9t3/a6WSjwut8C7bf62RxHM9Fw/jq4gn45MbVICmMnYbe845lxVopdH+19GR7RZQmGsbep+mykdB8VYAViILx6bnD8OypD+Gvy2eD9PU/Pqd6qgK1FUAYK++1c25jHXAr5cfe2WvTEwf3wf4Lp2t3RA2oAlGeUeVSBQapgMI4SHXVdpQCCmOUXFp4kApYGNdv3AJNqsEwGbi+vsFx02vrG6BJNRgmA9fWb2oQ/yCnHrVdXQE7TVevoiVVgcEooDAORle12oMCCmMPommVwSgQBePa5l341fx7QfrZ8QPw6pmPB9M7tTpVCkTB+MLJoxQvjYsl/NR4Xf9veqqoGdDFRsFYLyBrQFegZidGgWgYi1btjMV6RlzdnVk5PbxRbEO6c0f3Vdu5hblmtbyNyOIV7rJyvDikwVs53kjg3yZmYRQ3BUAYK6/awbjpr732G8AlY376ysvPDG9cJ7blTNC+DVtowoyBMYiRMeezYQn5mJoVo1jG/gjoGO0Ze15cm/FMFC+CylmROaCe7272ALmg/ExZ9AgkfiafbbBHoBgbDKw6VOQZjYfKbRxQFlNjPBO+hNPE1aRt553EM7mYHRc7w6G3CSRNzDsIM03nGfOxMxy748Ay4NB1NiG1ntEnyFxv8F44zpN+ZUNksZ+uDd/WcI6jYdx3cQHObN4KUrVp2gwkRcWjSByo1G61gAPlTaAWTaU8wCKiBdfXCAfGTLvFNnggbCRh5mZgUwyjlCGIvPZloJx3MeCZE61kRxBUZXemsI8DHiAUBObtNCHTNOWbQH2CDY+dPv4l841bAqOt69fw2sdsjNfekd8UwK8xzONoGF/46D149/QnQaoGI0fP0Th6INHFt1PYucPbaqQs3lmUytbHfBoM3wYPhADNnil14HPD9OyWL8PQlcHo8ne6900b2BfSpvGapi/oQbGCDx3CZmB0oMvF4Se270Ejp+gai2DE8gK6FMbPLjAW6ehX3+bjaBh7nqbxwnBAEt6VQQDgKco8WJsBbXeEMT9Qvody0A0RRqHVH8xBwUiAFoBLbec12GG9trmB/e9+f4dwvL0wEmRNaEosMfHZoMB2/JFHYHadJvPCI4wB3GQjPxD5X9PsoaRuMchsh6fyrMfMe0beQEq8lNeHEhgDjymej3bdEBseFXJenhkreDbf86K+zVR+wDjn4LUw1MNoGHcdm4W3T80Hqeo0jVfqnsvMddMg8ZSWpBjojrBlB71pPar8GUM+EaT7hTY8ELApLJPzAmUwmn6aHyk2+D/XrwIY5RqpbuYHjJ163TRtNTHl5cZAneTYKGUeRWSaNjeJtGM+ySkHkHrlmikIxyzJaIW/RsOYXv4MFu/dDlIMjFZYPeiiQL0/vbTS7PNxtrl69rPW+vE9GsZaz4z96PEU2Sj0jpWuv/sOFThlFz3aVjI/oEJRMOL/Te/859/gF/OzQdK46QGNzpSZjYJxyrTRy91mBRTGbRZcmytXQGEs10bPbLMCm1tbsLJ6Hf4PwrSwVL5YfwkAAAAASUVORK5CYII=;imageBorder=#000000;" vertex="1" parent="WIyWlLk6GJQsqaUBKTNV-1">
          <mxGeometry x="827" y="291" width="163" height="123" as="geometry" />
        </mxCell>
        <mxCell id="ET8FEvUB2pL6zUA1rJ1b-27" value="" style="endArrow=classic;html=1;strokeColor=#000000;entryX=-0.02;entryY=0.318;entryDx=0;entryDy=0;entryPerimeter=0;edgeStyle=orthogonalEdgeStyle;elbow=vertical;rounded=0;" edge="1" parent="WIyWlLk6GJQsqaUBKTNV-1" source="ET8FEvUB2pL6zUA1rJ1b-6" target="ET8FEvUB2pL6zUA1rJ1b-5">
          <mxGeometry width="50" height="50" relative="1" as="geometry">
            <mxPoint x="530" y="340" as="sourcePoint" />
            <mxPoint x="580" y="290" as="targetPoint" />
            <Array as="points">
              <mxPoint x="520" y="120" />
              <mxPoint x="520" y="477" />
            </Array>
          </mxGeometry>
        </mxCell>
        <mxCell id="ET8FEvUB2pL6zUA1rJ1b-29" value="" style="endArrow=classic;html=1;strokeColor=#000000;exitX=1;exitY=0.25;exitDx=0;exitDy=0;entryX=0;entryY=0.5;entryDx=0;entryDy=0;edgeStyle=orthogonalEdgeStyle;rounded=0;" edge="1" parent="WIyWlLk6GJQsqaUBKTNV-1" source="ET8FEvUB2pL6zUA1rJ1b-8" target="ET8FEvUB2pL6zUA1rJ1b-5">
          <mxGeometry width="50" height="50" relative="1" as="geometry">
            <mxPoint x="510" y="330" as="sourcePoint" />
            <mxPoint x="560" y="280" as="targetPoint" />
            <Array as="points">
              <mxPoint x="427" y="530" />
              <mxPoint x="489" y="530" />
              <mxPoint x="489" y="512" />
            </Array>
          </mxGeometry>
        </mxCell>
        <mxCell id="ET8FEvUB2pL6zUA1rJ1b-187" value="" style="endArrow=classic;html=1;strokeColor=#000000;entryX=0;entryY=0.5;entryDx=0;entryDy=0;edgeStyle=orthogonalEdgeStyle;rounded=0;" edge="1" parent="WIyWlLk6GJQsqaUBKTNV-1" source="ET8FEvUB2pL6zUA1rJ1b-6" target="ET8FEvUB2pL6zUA1rJ1b-7">
          <mxGeometry width="50" height="50" relative="1" as="geometry">
            <mxPoint x="440" y="130" as="sourcePoint" />
            <mxPoint x="490" y="80" as="targetPoint" />
            <Array as="points">
              <mxPoint x="634" y="120" />
              <mxPoint x="634" y="186" />
            </Array>
          </mxGeometry>
        </mxCell>
        <mxCell id="ET8FEvUB2pL6zUA1rJ1b-189" value="" style="endArrow=classic;html=1;strokeColor=#000000;entryX=-0.003;entryY=0.329;entryDx=0;entryDy=0;entryPerimeter=0;edgeStyle=orthogonalEdgeStyle;rounded=0;" edge="1" parent="WIyWlLk6GJQsqaUBKTNV-1" target="ET8FEvUB2pL6zUA1rJ1b-9">
          <mxGeometry width="50" height="50" relative="1" as="geometry">
            <mxPoint x="520" y="290" as="sourcePoint" />
            <mxPoint x="540" y="370" as="targetPoint" />
          </mxGeometry>
        </mxCell>
        <mxCell id="ET8FEvUB2pL6zUA1rJ1b-190" value="" style="shape=image;verticalLabelPosition=bottom;labelBackgroundColor=#ffffff;verticalAlign=top;aspect=fixed;imageAspect=0;image=data:image/png,iVBORw0KGgoAAAANSUhEUgAAAJ4AAABHCAYAAAD2tP6cAAAK+klEQVR4Ae1d3Y8cRxG//wMJxOY9f0Ae4YGAIuUJBDxtJJBAIB4iRUoEUpIJD1YAAZEQEhIgOzFRyMaJJSKTBN9HQnBwzus7OctxPju5w193e3fevS+fz4YrVN1d1dWzs7szczs3u+c6qT09/VXVv/pNda/cNTO2e3cPNCkGRXOgvbkNzbUWzC0sAf6NLTdvgybFoGgONFdbIfEM/fQfRaBgBHbu7CrxCsZYh09AQImXAIoWFY+AEq94jFVCAgJKvARQtKh4BDIR79rmf+FX57dSpT/M7sDG3f3iZ6ASRhKBTMT7ztvr8KMzq3DsgzVOL0ytwrdPrfA91WG7X57fGklQVOniEchEvG+cWoPxhTZsbm5yura6AY+/tsz3VIftCiFeswbVqG6QadaqUKlEYO+KAqsJtWoFKk5mdyl1iKo1aHZvkKEmrUwaMmt76lfeNTPxzl5uQ6u9yemzFSTeCt9THbYbPPGGF+B6VIFKacQrj0B5JWcm3mOvLsOXX/HpSy8vwyN/vBWUYf13/9LsTrx6BJVKxSbyJLKsUgFbbIlWraJnq8Azv7BX0zeqQxqPZwjhZJEo049Igh7UyTNtfSOoVqpQa0qy1yHCtpHX3zSXuptxbTs7x/4euVNHJ7NaNbrhONUa+dKksaWO4HCx+Pp+eSlSTL/MxIsvta1WG6Y/Wciw1DrjmfVR5mmCEkQyAC1hso4A7mFYQwhXL/LdiAeijSehlOmM7shp2jgCd+Rdm0AWTVFehUwvP5y3HMPr5eZv5AsdzYOEDwwKScJXCi8vj8S7ungDzk034N8L/4GxXqok7fFut9rw8aUMxAuAkdKcUQNPaAH1T60AGPoTTxpMSgrKhccDIHk169nMwyFlhobsIJskAc3DXLs/HIEurKSUKefpyjvGFu0Nkd1q4tp5/FhA6ZnMHm/y4hX4aHae07nZeXh/usH3VDcxu9hlqZXGs4BVa3NmA28BEiAyEWiZkXXSIF1wlN5EEN4Ym36UOEP5FZaWcyKLlCl1B0gmniunAbuoxsWJOkqZ4Tylx+MxHE7mB5CYp68fvlxm4sWXWuPxMi21uAL4PRJtyC0Z3L4E93TCe8gn1gCPT3KOPZ4fR3hXt4/yPLF1vq0kQXfisf5GbzE+71e7G5/nxHs5KTMkHi2fdv8Y7oXplzfrgjgZfbrLLqtmAMRrZdzjlTVVlTtMCGQi3pPvteDRV1fg67Ump2++sQJPvn2d76kO2/1+ZvtQ5io9BnmCivlFeijiUwkZBR1TTWRAjTIRD2Weu76XKjVW7w9IRR3mKCKQmXhHEQSd0+EjoMQ7fMxVIgAo8ZQGpSCgxCsFdhXaQbwby2ugSTEomgO3muthsM/VxZugSTEomgPXbq7CcnMdGvOLcO/efRj73/4+aFIMiubA9s4duLm8BpfmPoXtnd3ehwR0Z6IIDAqBjj3eoAbWcRSBXggo8Xqho3WFIaDEKwxaHbgXArmJd3tvF45fmYGfzkxxevnKDLT3dnvJ0zpFwCCQm3jRxUmofvAm/PjiBCe8f6nxkUKrCPRF4EDEO3XrCizBHie8R0L2/usVBogHIOnkb+9RSq+tRyIAJ1kbPJDpD5i6A7CiIDiwKcr9aO5AqDnCTrj0ws/3HPbcgYh37F/n4M3lq5zwvj/xekEyQsTrNQ2swyPogkxMMirDenE6GM/rURUNjX34JDSe2qYGzRpEHHVGrUfrmpt43zr7Z/j8Ky/CF0/+nNPnThwDLO/955/Y4HCkAdUSL8IYVfmUo3dxIY5hqB9Jwn5VqGLgteyHUVaBcW30lfFEHKIYQd3EKWBfis6i4+buKL4zsiGC0aMKtXHv8ZhUfHTd9iee4HH1Go4hyUOqu6vRKRaZXo+8PubIO89l9B/Q3MRDzxZfanG/19/jERnoKi2AgPon3xiaDEagxzyF7R32894jlEGGNERxrDB5NzbLi8mg8bgehdJSa0grlkETRNSFGF2IJ/WRaJC+tgzjOEgOipeklL1GI5+beM/XJ+Dkp5egsbXO6al/vpOBeKFXsctIzGBoVCQIGdlgGpLJwhz2Q0NaXoVtyVi+3uoglzOTl8FIxoPagGrZj3UiHQN7h/pwVQLxkNQsnxvaDOnr7mLe2z+gsW4jcZubeM9dGIffzn4I7y9d5vTDqdOZiOcRQkPhE0xXW4OGJiJ444Rkci2DHyWeINJL+LF9fRfixTwe6Sn7EfH2g7YkA6/eO1F/7MP7NBeS6JdjbsUZnj+WBH0fYI83kKXWeROzLzMWsIbjvRotr7k9HhqI9n24B7TLkyRQ3LhEcCy3+0XbH9WT/Zh4HFjeuR/sIJUkD+bl/CkMsoPIpL8kchdiM2WHP4Me7+bKujkksHPnbvpDAnap/QQaW7c5PXX+3RQeb/hBGYiGiUtwmpHrEHUwNtYveBBjdSNyi8QLjkWl1fvZC+Pwm5kPYXLxMqcfTL6lxBMABh5SlB8sm7TVONiIZfTOvcfLv9SWMU2VOWwIKPGGzSIPiD65iXd6aR6+euZEkL525gR8ttV+QKDTaR4EgdzEO4hQ7asIKPGUA6UgoMQrBXYV2kG89sY2aFIMiubAemsjjKstWqCOr6RGDnQQTxcBReAwEOhYag9DqMpQBJR4yoFSEFDilQK7CkXipf7OhcKlCAwKgdwe78TCDDxy+nfwlTPHOT38+kswdWtxULrpOEcYgdzESzqdki688QijqVNLjcDoEC/3wcrUWAy2YYrDmhxTgXOj08h06jqmjTxJbYPeRvsUcm7iYRjjF06+CJU//YwT3vcPb4whmvZ21IjXb15MzJBAiYdH5ZF5xIHJmeK0cj89SqrPTTxcao81/mFCHHGJxYSvsMDyfn8ynkHGODxETz0f/fafZqpGkQ+QlvEK1DapjBXBU7v+E5z8mSVnfPsBezrZa4nAsb386Sr5eSZsQ7EQFGaIZS62F4nBxAqj6Wi+gbeLan48JhUrH8Z6mCAhH3/B4/jmI5E7EPFyxdWaZYWAc1FgVGYZYAJ0kE8Uz4pIGrIakmGf0Ni1Zh2ih+JlEv+kPj42tpN4FDpoCWbJYomFyxzqQgSy3xbD+fh6I5mIR3OzhS42lkju3jjA84mPbecQesFQTlgn5zzc+dzEe3Z6HH798QS8O3+J0/fOvtHf46EhyEsRNq7M8c4ZFr/oSGSSr4QQRqP++MaAJ+ibtlwoMmEf9hI9PJ4N6g+NTP38fkt6PWxLD5QndfxVFlYpoU8cD7msuhmE5ArlhA+BmPKQZ3MTL6pPwuvXL8PV+3c4PXPhbDri8XLiDDuHm+sI6j08no8rdV7SAWu9Ino8b3TpKW0zYWjDCUdoZ2QjFglg9JKGdfq5r5YS8ZKNLfvFiBefL3rojjKnaVKAtyQj62nbh6R0oIzAJT/xcr/CInnPgwD22uNVcP9EnjJpP5dUxgaQhpbB0Ehi57XM/gy9piRQMvHog8o+LpaWWk9+irtFFXBu1JaWaCKxURHJxHqQ547Llt6VJzayr7LITTyz1E5PwXsLDU7fHz/V3+N5zB7sHO0Be6BQjwSRk9rFl+mkNkNalpt4z9cn4bVrc7Cwt8Xp6em/KfEyGDrwehn62abSM2fuXHqH3MRL+p+LdG+LKn3OqsAQIIDEy/UmgRcuTsITf38LfjIzwenRvx7XV9EOgVFHQQUknn5gZRQsdcR0zL3UHjEcdDqHjIAS75ABV3EWgc2tHWhtbMPcwpIpGNvf3wdNikHRHLixvA539+4x8f4PwaOBfYP+dM8AAAAASUVORK5CYII=;imageBorder=#000000;" vertex="1" parent="WIyWlLk6GJQsqaUBKTNV-1">
          <mxGeometry x="990" y="50" width="158" height="71" as="geometry" />
        </mxCell>
        <mxCell id="ET8FEvUB2pL6zUA1rJ1b-192" value="" style="endArrow=classic;html=1;strokeColor=#000000;entryX=0;entryY=0.5;entryDx=0;entryDy=0;rounded=0;edgeStyle=orthogonalEdgeStyle;" edge="1" parent="WIyWlLk6GJQsqaUBKTNV-1" target="ET8FEvUB2pL6zUA1rJ1b-190">
          <mxGeometry width="50" height="50" relative="1" as="geometry">
            <mxPoint x="620" y="120" as="sourcePoint" />
            <mxPoint x="680" y="110" as="targetPoint" />
          </mxGeometry>
        </mxCell>
        <mxCell id="ET8FEvUB2pL6zUA1rJ1b-193" value="" style="endArrow=classic;html=1;strokeColor=#000000;rounded=0;edgeStyle=orthogonalEdgeStyle;entryX=0;entryY=0.845;entryDx=0;entryDy=0;entryPerimeter=0;" edge="1" parent="WIyWlLk6GJQsqaUBKTNV-1" target="ET8FEvUB2pL6zUA1rJ1b-190">
          <mxGeometry width="50" height="50" relative="1" as="geometry">
            <mxPoint x="880" y="211" as="sourcePoint" />
            <mxPoint x="950" y="110" as="targetPoint" />
          </mxGeometry>
        </mxCell>
      </root>
    </mxGraphModel>
  </diagram>
</mxfile>
